<?xml version="1.0" encoding="UTF-8"?>
<svg id="Camada_2" data-name="Camada 2" xmlns="http://www.w3.org/2000/svg" viewBox="0 0 283.46 139.39">
  <defs>
    <style>
      .cls-1 {
        fill: #b1b4b5;
      }
    </style>
  </defs>
  <g id="Layer_1" data-name="Layer 1">
    <g>
      <path class="cls-1" d="M181.05,103.4c-8.51,0-15.44-6.93-15.44-15.44s6.93-15.44,15.44-15.44,15.44,6.93,15.44,15.44-6.93,15.44-15.44,15.44ZM181.05,75.8c-6.71,0-12.17,5.46-12.17,12.17s5.46,12.17,12.17,12.17,12.17-5.46,12.17-12.17-5.46-12.17-12.17-12.17Z"/>
      <path class="cls-1" d="M201.48,110.85c-.63,0-1.26-.24-1.74-.72-.96-.96-.96-2.51,0-3.47,4.99-4.99,7.74-11.63,7.74-18.69,0-14.58-11.86-26.44-26.44-26.44-11.28,0-21.33,7.16-25,17.83-.44,1.28-1.84,1.96-3.12,1.52-1.28-.44-1.96-1.84-1.52-3.12,4.35-12.64,16.27-21.14,29.65-21.14,17.28,0,31.35,14.06,31.35,31.35,0,8.37-3.26,16.25-9.18,22.17-.48.48-1.11.72-1.74.72Z"/>
      <path class="cls-1" d="M211.26,110.58c-.43,0-.87-.12-1.26-.39-1.03-.7-1.3-2.09-.6-3.12,3.82-5.65,5.84-12.26,5.84-19.11,0-18.85-15.34-34.19-34.19-34.19-13.32,0-25.52,7.83-31.08,19.93-.52,1.13-1.85,1.62-2.98,1.11-1.13-.52-1.62-1.85-1.11-2.98,6.29-13.7,20.1-22.56,35.17-22.56,21.33,0,38.69,17.35,38.69,38.69,0,7.75-2.29,15.23-6.61,21.63-.43.64-1.14.99-1.87.99Z"/>
      <path class="cls-1" d="M219.87,110.7c-.33,0-.66-.08-.96-.24-1-.53-1.37-1.77-.84-2.77,3.22-6.03,4.92-12.85,4.92-19.73,0-23.12-18.81-41.94-41.94-41.94-15.55,0-29.75,8.54-37.05,22.28-.53,1-1.77,1.38-2.77.85-1-.53-1.38-1.77-.85-2.77,8.02-15.08,23.6-24.45,40.67-24.45,25.38,0,46.03,20.65,46.03,46.03,0,7.55-1.87,15.04-5.4,21.66-.37.69-1.08,1.08-1.81,1.08Z"/>
      <path class="cls-1" d="M228.09,110.87c-.25,0-.51-.05-.75-.16-.93-.42-1.34-1.51-.93-2.43,2.87-6.4,4.33-13.24,4.33-20.32,0-27.4-22.29-49.69-49.69-49.69-17.8,0-34.35,9.61-43.18,25.09-.5.88-1.63,1.19-2.51.69-.88-.5-1.19-1.63-.69-2.51,9.49-16.62,27.26-26.95,46.38-26.95,29.43,0,53.37,23.94,53.37,53.37,0,7.6-1.57,14.94-4.65,21.82-.31.68-.98,1.09-1.68,1.09Z"/>
      <path class="cls-1" d="M236.4,110.29c-.19,0-.38-.03-.57-.1-.85-.32-1.28-1.26-.96-2.11,2.4-6.43,3.62-13.2,3.62-20.12,0-31.67-25.77-57.44-57.44-57.44-20.06,0-38.34,10.2-48.9,27.29-.47.77-1.48,1.01-2.25.53-.77-.47-1.01-1.48-.53-2.25,5.34-8.65,12.83-15.88,21.66-20.91,9.1-5.19,19.49-7.93,30.02-7.93,33.48,0,60.71,27.23,60.71,60.71,0,7.32-1.29,14.47-3.83,21.27-.25.66-.87,1.06-1.53,1.06Z"/>
      <path class="cls-1" d="M247.08,98.27c-.06,0-.13,0-.19-.01-.78-.1-1.33-.82-1.23-1.61.38-2.86.57-5.78.57-8.69,0-10.87-2.73-21.64-7.89-31.12-.38-.69-.12-1.56.57-1.94.69-.38,1.56-.12,1.94.57,5.39,9.91,8.24,21.14,8.24,32.49,0,3.03-.2,6.08-.6,9.07-.1.72-.71,1.24-1.42,1.24Z"/>
      <path class="cls-1" d="M122.47,57.64c-.23,0-.46-.06-.68-.17-.69-.38-.95-1.25-.57-1.94,11.93-21.97,34.86-35.61,59.84-35.61,8.85,0,17.47,1.68,25.6,4.98.73.3,1.08,1.13.79,1.87-.3.73-1.13,1.09-1.87.79-7.79-3.16-16.04-4.77-24.52-4.77-23.92,0-45.89,13.07-57.32,34.12-.26.48-.75.75-1.26.75Z"/>
      <path class="cls-1" d="M255.21,89.39c-.79,0-1.43-.64-1.43-1.43,0-10.98-2.39-21.53-7.09-31.36-.34-.71-.04-1.57.67-1.91.71-.34,1.57-.04,1.91.67,4.89,10.22,7.37,21.18,7.37,32.6,0,.79-.64,1.43-1.43,1.43Z"/>
      <path class="cls-1" d="M114.43,56.77c-.21,0-.43-.05-.63-.15-.71-.35-1-1.21-.65-1.92,6.14-12.51,15.61-23.08,27.38-30.57,12.1-7.7,26.11-11.77,40.52-11.77,5.19,0,10.39.53,15.43,1.58.77.16,1.27.92,1.11,1.69s-.92,1.27-1.69,1.11c-4.85-1.01-9.85-1.52-14.85-1.52-13.86,0-27.34,3.91-38.98,11.32-11.33,7.21-20.44,17.38-26.35,29.42-.25.51-.76.8-1.29.8Z"/>
      <path class="cls-1" d="M105.95,57.15c-.19,0-.38-.04-.56-.12-.73-.31-1.06-1.15-.75-1.88,13.14-30.58,43.14-50.33,76.42-50.33,2.12,0,4.26.08,6.36.24.79.06,1.38.75,1.32,1.54-.06.79-.74,1.38-1.54,1.32-2.03-.15-4.1-.23-6.15-.23-32.13,0-61.09,19.08-73.79,48.6-.23.54-.76.87-1.32.87Z"/>
      <path class="cls-1" d="M262.52,83.14c-.74,0-1.37-.57-1.43-1.32-.66-8.73-2.73-17.22-6.14-25.24-.31-.73.03-1.57.76-1.88.73-.31,1.57.03,1.88.76,3.53,8.31,5.67,17.1,6.36,26.14.06.79-.53,1.48-1.32,1.54-.04,0-.07,0-.11,0Z"/>
      <path class="cls-1" d="M97.68,57.24c-.15,0-.29-.03-.44-.08-.63-.24-.95-.95-.71-1.59C106.81,28.8,129.42,8.29,157.03.7c.65-.18,1.33.2,1.51.86.18.65-.2,1.33-.86,1.51-26.86,7.38-48.86,27.33-58.85,53.38-.19.49-.65.79-1.15.79Z"/>
      <path class="cls-1" d="M269.46,76.84c-.6,0-1.13-.44-1.21-1.06-.91-6.58-2.57-13.06-4.94-19.26-.24-.63.07-1.34.71-1.58.64-.24,1.34.08,1.58.71,2.44,6.37,4.15,13.03,5.08,19.8.09.67-.38,1.29-1.05,1.38-.06,0-.11.01-.17.01Z"/>
      <path class="cls-1" d="M276.05,70.54c-.58,0-1.09-.41-1.2-.99-.87-4.44-2.06-8.85-3.55-13.12-.22-.64.11-1.34.75-1.56.64-.22,1.34.11,1.56.75,1.53,4.37,2.75,8.9,3.64,13.45.13.67-.3,1.31-.97,1.44-.08.02-.16.02-.24.02Z"/>
      <path class="cls-1" d="M89.72,57.04c-.14,0-.27-.02-.41-.07-.64-.23-.98-.93-.75-1.57,4.22-11.99,10.66-22.92,19.13-32.47C116.12,13.44,126.14,5.76,137.48.13c.61-.3,1.34-.05,1.65.55.3.61.05,1.34-.55,1.65-11.05,5.49-20.82,12.98-29.04,22.24-8.26,9.32-14.54,19.97-18.66,31.66-.18.5-.65.82-1.16.82Z"/>
      <path class="cls-1" d="M81.7,57.01c-.1,0-.21-.02-.31-.05-.54-.17-.83-.75-.66-1.29.84-2.63,1.81-5.25,2.86-7.81.22-.52.81-.77,1.34-.56s.77.81.56,1.34c-1.03,2.51-1.97,5.08-2.8,7.66-.14.43-.54.71-.97.71Z"/>
      <path class="cls-1" d="M282.44,64.23c-.46,0-.88-.31-.99-.78-.57-2.36-1.24-4.73-1.98-7.04-.17-.54.12-1.11.66-1.29.54-.17,1.11.12,1.29.66.75,2.36,1.43,4.77,2.02,7.18.13.55-.2,1.1-.75,1.24-.08.02-.16.03-.24.03Z"/>
      <path class="cls-1" d="M63.23,48.05h4.28v54.77c0,3.33-2.7,6.03-6.03,6.03h-4.62v-54.43c0-3.51,2.85-6.36,6.36-6.36Z"/>
      <path class="cls-1" d="M94.57,109.7c-3.34,0-6.38-.55-9.1-1.66-2.73-1.11-5.05-2.63-6.98-4.59-1.93-1.95-3.41-4.24-4.44-6.87-1.03-2.62-1.54-5.45-1.54-8.49s.55-5.88,1.66-8.53c1.11-2.65,2.63-4.95,4.59-6.91s4.27-3.5,6.94-4.63c2.67-1.13,5.56-1.7,8.64-1.7s6.02.54,8.64,1.62,4.89,2.56,6.79,4.44c1.9,1.88,3.4,4.13,4.48,6.75,1.08,2.62,1.62,5.48,1.62,8.56h0c0,2.22-1.8,4.01-4.01,4.01h-29.09c.72,2.73,2.12,4.87,4.21,6.44,2.08,1.57,4.67,2.35,7.75,2.35,2.47,0,4.55-.5,6.25-1.5,1.7-1,3.06-2.35,4.09-4.05l8.72,5.09c-2.11,2.93-4.68,5.27-7.72,7.02-3.03,1.75-6.87,2.62-11.5,2.62ZM94.34,75.36c-2.73,0-5.07.72-7.02,2.16-1.96,1.44-3.37,3.39-4.24,5.86h22.22c-.72-2.62-2.03-4.62-3.93-5.98-1.9-1.36-4.24-2.04-7.02-2.04Z"/>
      <path class="cls-1" d="M137.52,109.7c-4.99,0-9.07-.89-12.23-2.66-3.16-1.77-5.57-4.33-7.21-7.68l10.26-4.01c1.85,3.76,5.04,5.63,9.57,5.63,2.16,0,3.81-.45,4.94-1.35,1.13-.9,1.7-1.97,1.7-3.2,0-.77-.26-1.4-.77-1.89-.51-.49-1.22-.9-2.12-1.23-.9-.33-1.94-.63-3.13-.89-1.18-.26-2.44-.51-3.78-.77-1.75-.36-3.51-.8-5.29-1.31-1.77-.51-3.37-1.23-4.78-2.16-1.42-.93-2.56-2.1-3.43-3.51-.88-1.41-1.31-3.23-1.31-5.44,0-1.75.41-3.42,1.23-5.01.82-1.59,1.98-2.98,3.47-4.17,1.49-1.18,3.28-2.12,5.36-2.82,2.08-.69,4.41-1.04,6.98-1.04,4.42,0,8.02.78,10.8,2.35,2.78,1.57,5.14,3.74,7.1,6.52l-9.72,3.94c-.87-1.39-1.97-2.47-3.28-3.24-1.31-.77-2.94-1.16-4.9-1.16-2.11,0-3.66.37-4.67,1.12-1,.75-1.5,1.71-1.5,2.89,0,1.34.82,2.28,2.47,2.82,1.65.54,3.99,1.15,7.02,1.81,1.75.36,3.51.8,5.28,1.31,1.77.52,3.4,1.25,4.86,2.2,1.47.95,2.66,2.17,3.59,3.66.93,1.49,1.39,3.34,1.39,5.56,0,1.65-.36,3.28-1.08,4.9-.72,1.62-1.83,3.09-3.32,4.4-1.49,1.31-3.36,2.38-5.59,3.2-2.24.82-4.87,1.23-7.91,1.23Z"/>
      <path class="cls-1" d="M175.75,94.86c1.4-1.28,3.25-2.07,5.3-2.07s3.9.79,5.3,2.07c2.07-1.59,3.41-4.09,3.41-6.9,0-4.8-3.91-8.71-8.71-8.71s-8.71,3.91-8.71,8.71c0,2.81,1.34,5.3,3.41,6.9ZM181.05,84.16c2.1,0,3.8,1.71,3.8,3.8s-1.71,3.8-3.8,3.8-3.8-1.71-3.8-3.8,1.71-3.8,3.8-3.8Z"/>
      <path class="cls-1" d="M183.38,109.7c-2.83,0-5.38-.5-7.64-1.5-2.26-1-4.09-2.48-5.48-4.44v14.98c0,3.75-3.04,6.78-6.78,6.78h-3.79v-58.33h10.49v5.79c1.39-2.06,3.21-3.68,5.48-4.86,2.26-1.18,4.81-1.77,7.64-1.77,2.62,0,5.14.5,7.56,1.5,2.42,1,4.55,2.46,6.4,4.36,1.85,1.9,3.33,4.19,4.44,6.87,1.11,2.68,1.66,5.66,1.66,8.95s-.57,6.34-1.7,8.99c-1.13,2.65-2.62,4.93-4.48,6.83-1.85,1.9-3.97,3.36-6.37,4.36-2.39,1-4.87,1.5-7.45,1.5ZM181.22,99.67c1.59,0,3.09-.31,4.47-.93,1.39-.62,2.61-1.45,3.66-2.51,1.05-1.05,1.88-2.29,2.47-3.7.59-1.41.89-2.94.89-4.59s-.3-3.18-.89-4.59c-.59-1.41-1.42-2.65-2.47-3.7-1.05-1.05-2.28-1.89-3.66-2.51-1.39-.62-2.88-.93-4.47-.93s-3.18.31-4.59.93c-1.42.62-2.64,1.45-3.66,2.51-1.03,1.06-1.84,2.3-2.43,3.74-.59,1.44-.89,2.96-.89,4.55s.3,3.18.89,4.59c.59,1.42,1.4,2.65,2.43,3.7,1.03,1.05,2.25,1.89,3.66,2.51,1.41.62,2.94.93,4.59.93Z"/>
      <path class="cls-1" d="M32.02,52.41h-4.95c-3.48,0-6.59,2.15-7.82,5.4L0,108.74h11.19l3.7-10.26,2.52-6.87h18.49l2.52,6.87,1.63,4.53c1.24,3.44,4.51,5.73,8.16,5.73h5.09l-21.29-56.32ZM26.7,66.23l6.19,17.1h-12.44l6.25-17.1Z"/>
      <g>
        <path class="cls-1" d="M3.17,117.69h1.58l3.14,8.31h-1.65l-.55-1.51h-3.47l-.55,1.51H.03l3.14-8.31ZM2.76,123.03h2.4l-1.2-3.3-1.21,3.3Z"/>
        <path class="cls-1" d="M11.88,126.11c-.45,0-.85-.04-1.22-.13s-.69-.2-.99-.35-.56-.33-.8-.54-.46-.44-.65-.69l1.4-1.12c.27.43.6.76.97.98.37.22.81.33,1.31.33.46,0,.8-.1,1.02-.29.23-.19.34-.44.34-.75,0-.19-.05-.35-.14-.47-.1-.13-.23-.23-.4-.32-.17-.09-.38-.16-.61-.22-.24-.06-.5-.12-.79-.19-.31-.07-.62-.15-.93-.24-.31-.09-.59-.23-.84-.4-.25-.17-.46-.39-.61-.66s-.24-.62-.24-1.04c0-.34.07-.66.22-.96.14-.3.35-.56.61-.78.26-.22.57-.39.93-.52.36-.13.76-.19,1.19-.19.36,0,.7.03,1,.1.3.06.59.16.85.28.26.12.5.27.73.45.22.18.44.39.65.62l-1.31,1.02c-.22-.32-.48-.57-.78-.76-.3-.19-.69-.28-1.17-.28s-.78.1-.99.29c-.2.19-.3.43-.3.7,0,.17.05.3.15.41.1.11.23.2.4.27.17.07.36.14.59.19.23.05.47.11.73.17.32.07.64.15.97.25.33.1.62.24.88.42.26.18.48.42.64.71.17.29.25.66.25,1.1,0,.36-.07.69-.22,1.01-.14.32-.35.59-.61.83-.27.24-.59.43-.96.56-.38.14-.8.21-1.26.21Z"/>
        <path class="cls-1" d="M19.26,126.11c-.45,0-.85-.04-1.22-.13s-.69-.2-.99-.35-.56-.33-.8-.54-.46-.44-.65-.69l1.4-1.12c.27.43.6.76.97.98.37.22.81.33,1.31.33.46,0,.8-.1,1.02-.29.23-.19.34-.44.34-.75,0-.19-.05-.35-.14-.47-.1-.13-.23-.23-.4-.32-.17-.09-.38-.16-.61-.22-.24-.06-.5-.12-.79-.19-.31-.07-.62-.15-.93-.24-.31-.09-.59-.23-.84-.4-.25-.17-.46-.39-.61-.66s-.24-.62-.24-1.04c0-.34.07-.66.22-.96.14-.3.35-.56.61-.78.26-.22.57-.39.93-.52.36-.13.76-.19,1.19-.19.36,0,.7.03,1,.1.3.06.59.16.85.28.26.12.5.27.73.45.22.18.44.39.65.62l-1.31,1.02c-.22-.32-.48-.57-.78-.76-.3-.19-.69-.28-1.17-.28s-.78.1-.99.29c-.2.19-.3.43-.3.7,0,.17.05.3.15.41.1.11.23.2.4.27.17.07.36.14.59.19.23.05.47.11.73.17.32.07.64.15.97.25.33.1.62.24.88.42.26.18.48.42.64.71.17.29.25.66.25,1.1,0,.36-.07.69-.22,1.01-.14.32-.35.59-.61.83-.27.24-.59.43-.96.56-.38.14-.8.21-1.26.21Z"/>
        <path class="cls-1" d="M23.6,117.69h5.59v1.51h-3.99v1.87h3.99v1.51h-3.99v1.89h3.99v1.53h-5.59v-8.31Z"/>
        <path class="cls-1" d="M30.76,117.69h1.56l2.47,3.43,2.56-3.43h1.49v8.31h-1.57v-5.83l-2.49,3.35-2.43-3.29v5.77h-1.59v-8.31Z"/>
        <path class="cls-1" d="M40.5,117.69h3.44c.93,0,1.64.2,2.14.6.5.4.75.97.75,1.73,0,.39-.08.72-.24,1-.16.28-.4.51-.71.68.35.17.62.42.8.73s.28.68.28,1.12c0,.41-.07.77-.2,1.08s-.33.56-.59.77c-.26.21-.57.36-.94.46-.37.1-.78.15-1.25.15h-3.46v-8.31ZM42.08,119.11v1.92h1.91c.43,0,.74-.09.93-.28.19-.19.28-.42.28-.71s-.1-.52-.3-.68c-.2-.17-.51-.25-.94-.25h-1.89ZM42.08,122.48v2.07h1.9c.44,0,.77-.09,1-.28.22-.19.34-.44.34-.77s-.11-.58-.32-.76c-.21-.18-.57-.27-1.08-.27h-1.83Z"/>
        <path class="cls-1" d="M48.36,117.69h1.62v6.75h3.84v1.56h-5.45v-8.31Z"/>
        <path class="cls-1" d="M54.86,117.69h5.59v1.51h-3.99v1.87h3.99v1.51h-3.99v1.89h3.99v1.53h-5.59v-8.31Z"/>
        <path class="cls-1" d="M62.06,117.69h1.63v8.31h-1.63v-8.31Z"/>
        <path class="cls-1" d="M67.75,117.69h1.58l3.14,8.31h-1.65l-.55-1.51h-3.47l-.55,1.51h-1.65l3.14-8.31ZM67.34,123.03h2.4l-1.2-3.3-1.21,3.3Z"/>
        <path class="cls-1" d="M76.04,117.69h1.62v6.75h3.84v1.56h-5.45v-8.31Z"/>
        <path class="cls-1" d="M82.54,117.69h5.59v1.51h-3.99v1.87h3.99v1.51h-3.99v1.89h3.99v1.53h-5.59v-8.31Z"/>
        <path class="cls-1" d="M93.62,126.11c-.65,0-1.25-.11-1.78-.34-.53-.23-.99-.54-1.37-.93s-.67-.84-.88-1.36c-.21-.52-.31-1.06-.31-1.64s.11-1.16.32-1.68c.21-.52.51-.97.89-1.36.38-.38.83-.68,1.36-.91s1.1-.33,1.73-.33c.79,0,1.48.16,2.07.47.59.31,1.09.73,1.48,1.26l-1.36.95c-.24-.36-.55-.65-.92-.85-.37-.2-.8-.3-1.28-.3-.39,0-.74.07-1.07.22-.33.14-.61.34-.85.59-.24.25-.43.54-.56.87-.14.33-.21.69-.21,1.07s.07.75.2,1.08c.13.33.32.62.56.87s.53.44.86.57c.33.14.7.21,1.09.21.64,0,1.16-.16,1.56-.49.4-.33.67-.76.81-1.31h-2.64v-1.5h4.37v.69c0,.55-.09,1.08-.28,1.58-.19.5-.46.94-.81,1.33-.35.38-.78.69-1.29.91-.5.22-1.07.34-1.69.34Z"/>
        <path class="cls-1" d="M99.03,117.69h1.63v8.31h-1.63v-8.31Z"/>
        <path class="cls-1" d="M105.33,126.11c-.45,0-.85-.04-1.22-.13s-.69-.2-.99-.35-.56-.33-.8-.54-.46-.44-.65-.69l1.4-1.12c.27.43.6.76.97.98.37.22.81.33,1.31.33.46,0,.8-.1,1.02-.29.23-.19.34-.44.34-.75,0-.19-.05-.35-.14-.47-.1-.13-.23-.23-.4-.32-.17-.09-.38-.16-.61-.22-.24-.06-.5-.12-.79-.19-.31-.07-.62-.15-.93-.24-.31-.09-.59-.23-.84-.4-.25-.17-.46-.39-.61-.66s-.24-.62-.24-1.04c0-.34.07-.66.22-.96.14-.3.35-.56.61-.78.26-.22.57-.39.93-.52.36-.13.76-.19,1.19-.19.36,0,.7.03,1,.1.3.06.59.16.85.28.26.12.5.27.73.45.22.18.44.39.65.62l-1.31,1.02c-.22-.32-.48-.57-.78-.76-.3-.19-.69-.28-1.17-.28s-.78.1-.99.29c-.2.19-.3.43-.3.7,0,.17.05.3.15.41.1.11.23.2.4.27.17.07.36.14.59.19.23.05.47.11.73.17.32.07.64.15.97.25.33.1.62.24.88.42.26.18.48.42.64.71.17.29.25.66.25,1.1,0,.36-.07.69-.22,1.01-.14.32-.35.59-.61.83-.27.24-.59.43-.96.56-.38.14-.8.21-1.26.21Z"/>
        <path class="cls-1" d="M109.67,117.69h1.62v6.75h3.84v1.56h-5.45v-8.31Z"/>
        <path class="cls-1" d="M119.04,117.69h1.58l3.14,8.31h-1.65l-.55-1.51h-3.47l-.55,1.51h-1.65l3.14-8.31ZM118.63,123.03h2.4l-1.2-3.3-1.21,3.3Z"/>
        <path class="cls-1" d="M125.67,119.17h-2.31v-1.48h6.18v1.48h-2.29v6.83h-1.58v-6.83Z"/>
        <path class="cls-1" d="M130.62,117.69h1.63v8.31h-1.63v-8.31Z"/>
        <path class="cls-1" d="M133.17,117.69h1.7l2.23,6.17,2.25-6.17h1.69l-3.14,8.31h-1.58l-3.14-8.31Z"/>
        <path class="cls-1" d="M143.71,117.69h1.58l3.14,8.31h-1.65l-.55-1.51h-3.47l-.55,1.51h-1.65l3.14-8.31ZM143.3,123.03h2.4l-1.2-3.3-1.21,3.3Z"/>
        <path class="cls-1" d="M.59,130.96h2.69c.66,0,1.26.11,1.79.32s.99.51,1.37.88c.38.37.67.81.87,1.32.2.5.31,1.05.31,1.65s-.11,1.14-.32,1.65c-.22.51-.52.95-.9,1.32-.38.37-.84.66-1.36.87-.52.21-1.1.32-1.72.32H.59v-8.31ZM2.2,132.46v5.32h1c.42,0,.8-.07,1.14-.2.35-.14.64-.32.88-.56.24-.24.42-.52.56-.84.13-.32.2-.67.2-1.04s-.06-.73-.19-1.06c-.13-.33-.31-.61-.55-.85s-.53-.42-.88-.56c-.35-.13-.75-.2-1.21-.2h-.96Z"/>
        <path class="cls-1" d="M12.83,139.39c-.59,0-1.15-.11-1.66-.34-.52-.22-.97-.53-1.35-.92-.38-.39-.69-.84-.91-1.36-.22-.52-.33-1.07-.33-1.66s.11-1.15.33-1.66.52-.97.91-1.36c.38-.39.83-.69,1.35-.92.52-.22,1.07-.34,1.66-.34s1.15.11,1.67.34c.52.22.97.53,1.36.92s.69.84.91,1.36c.22.52.34,1.07.34,1.66s-.11,1.15-.33,1.66c-.22.52-.52.97-.91,1.36-.39.39-.84.69-1.36.92-.52.22-1.08.34-1.67.34ZM12.83,137.81c.38,0,.73-.07,1.05-.21.32-.14.6-.33.84-.58.24-.25.42-.53.56-.86.13-.33.2-.67.2-1.04s-.07-.72-.2-1.05c-.14-.33-.32-.61-.56-.85-.24-.24-.52-.44-.84-.58-.33-.14-.68-.22-1.05-.22s-.72.07-1.04.22c-.32.14-.6.34-.84.58-.24.24-.42.53-.55.85-.13.33-.2.68-.2,1.05s.07.71.2,1.04c.13.33.32.61.55.86.24.25.51.44.84.58.32.14.67.21,1.04.21Z"/>
        <path class="cls-1" d="M21,130.96h5.59v1.51h-3.99v1.87h3.99v1.51h-3.99v1.89h3.99v1.53h-5.59v-8.31Z"/>
        <path class="cls-1" d="M31.07,139.39c-.45,0-.85-.04-1.22-.13s-.69-.2-.99-.35-.56-.33-.8-.54-.46-.44-.65-.69l1.4-1.12c.27.43.6.76.97.98.37.22.81.33,1.31.33.46,0,.8-.1,1.02-.29.23-.19.34-.44.34-.75,0-.19-.05-.35-.14-.47-.1-.13-.23-.23-.4-.32-.17-.09-.38-.16-.61-.22-.24-.06-.5-.12-.79-.19-.31-.07-.62-.15-.93-.24-.31-.09-.59-.23-.84-.4-.25-.17-.46-.39-.61-.66s-.24-.62-.24-1.04c0-.34.07-.66.22-.96.14-.3.35-.56.61-.78.26-.22.57-.39.93-.52.36-.13.76-.19,1.19-.19.36,0,.7.03,1,.1.3.06.59.16.85.28.26.12.5.27.73.45.22.18.44.39.65.62l-1.31,1.02c-.22-.32-.48-.57-.78-.76-.3-.19-.69-.28-1.17-.28s-.78.1-.99.29c-.2.19-.3.43-.3.7,0,.17.05.3.15.41.1.11.23.2.4.27.17.07.36.14.59.19.23.05.47.11.73.17.32.07.64.15.97.25.33.1.62.24.88.42.26.18.48.42.64.71.17.29.25.66.25,1.1,0,.36-.07.69-.22,1.01-.14.32-.35.59-.61.83-.27.24-.59.43-.96.56-.38.14-.8.21-1.26.21Z"/>
        <path class="cls-1" d="M37.31,132.44h-2.31v-1.48h6.18v1.48h-2.29v6.83h-1.58v-6.83Z"/>
        <path class="cls-1" d="M43.93,130.96h1.58l3.14,8.31h-1.65l-.55-1.51h-3.47l-.55,1.51h-1.65l3.14-8.31ZM43.52,136.31h2.4l-1.2-3.3-1.21,3.3Z"/>
        <path class="cls-1" d="M49.55,130.96h2.69c.66,0,1.26.11,1.79.32s.99.51,1.37.88c.38.37.67.81.87,1.32.2.5.31,1.05.31,1.65s-.11,1.14-.32,1.65c-.22.51-.52.95-.9,1.32-.38.37-.84.66-1.36.87-.52.21-1.1.32-1.72.32h-2.72v-8.31ZM51.16,132.46v5.32h1c.42,0,.8-.07,1.14-.2.35-.14.64-.32.88-.56.24-.24.42-.52.56-.84.13-.32.2-.67.2-1.04s-.06-.73-.19-1.06c-.13-.33-.31-.61-.55-.85s-.53-.42-.88-.56c-.35-.13-.75-.2-1.21-.2h-.96Z"/>
        <path class="cls-1" d="M61.79,139.39c-.59,0-1.15-.11-1.66-.34-.52-.22-.97-.53-1.35-.92-.38-.39-.69-.84-.91-1.36-.22-.52-.33-1.07-.33-1.66s.11-1.15.33-1.66.52-.97.91-1.36c.38-.39.83-.69,1.35-.92.52-.22,1.07-.34,1.66-.34s1.15.11,1.67.34c.52.22.97.53,1.36.92s.69.84.91,1.36c.22.52.34,1.07.34,1.66s-.11,1.15-.33,1.66c-.22.52-.52.97-.91,1.36-.39.39-.84.69-1.36.92-.52.22-1.08.34-1.67.34ZM61.79,137.81c.38,0,.73-.07,1.05-.21.32-.14.6-.33.84-.58.24-.25.42-.53.56-.86.13-.33.2-.67.2-1.04s-.07-.72-.2-1.05c-.14-.33-.32-.61-.56-.85-.24-.24-.52-.44-.84-.58-.33-.14-.68-.22-1.05-.22s-.72.07-1.04.22c-.32.14-.6.34-.84.58-.24.24-.42.53-.55.85-.13.33-.2.68-.2,1.05s.07.71.2,1.04c.13.33.32.61.55.86.24.25.51.44.84.58.32.14.67.21,1.04.21Z"/>
        <path class="cls-1" d="M69.96,130.96h2.69c.66,0,1.26.11,1.79.32s.99.51,1.37.88c.38.37.67.81.87,1.32.2.5.31,1.05.31,1.65s-.11,1.14-.32,1.65c-.22.51-.52.95-.9,1.32-.38.37-.84.66-1.36.87-.52.21-1.1.32-1.72.32h-2.72v-8.31ZM71.58,132.46v5.32h1c.42,0,.8-.07,1.14-.2.35-.14.64-.32.88-.56.24-.24.42-.52.56-.84.13-.32.2-.67.2-1.04s-.06-.73-.19-1.06c-.13-.33-.31-.61-.55-.85s-.53-.42-.88-.56c-.35-.13-.75-.2-1.21-.2h-.96Z"/>
        <path class="cls-1" d="M78.29,130.96h5.59v1.51h-3.99v1.87h3.99v1.51h-3.99v1.89h3.99v1.53h-5.59v-8.31Z"/>
        <path class="cls-1" d="M90.94,139.39c-.45,0-.85-.04-1.22-.13s-.69-.2-.99-.35-.56-.33-.8-.54-.46-.44-.65-.69l1.4-1.12c.27.43.6.76.97.98.37.22.81.33,1.31.33.46,0,.8-.1,1.02-.29.23-.19.34-.44.34-.75,0-.19-.05-.35-.14-.47-.1-.13-.23-.23-.4-.32-.17-.09-.38-.16-.61-.22-.24-.06-.5-.12-.79-.19-.31-.07-.62-.15-.93-.24-.31-.09-.59-.23-.84-.4-.25-.17-.46-.39-.61-.66s-.24-.62-.24-1.04c0-.34.07-.66.22-.96.14-.3.35-.56.61-.78.26-.22.57-.39.93-.52.36-.13.76-.19,1.19-.19.36,0,.7.03,1,.1.3.06.59.16.85.28.26.12.5.27.73.45.22.18.44.39.65.62l-1.31,1.02c-.22-.32-.48-.57-.78-.76-.3-.19-.69-.28-1.17-.28s-.78.1-.99.29c-.2.19-.3.43-.3.7,0,.17.05.3.15.41.1.11.23.2.4.27.17.07.36.14.59.19.23.05.47.11.73.17.32.07.64.15.97.25.33.1.62.24.88.42.26.18.48.42.64.71.17.29.25.66.25,1.1,0,.36-.07.69-.22,1.01-.14.32-.35.59-.61.83-.27.24-.59.43-.96.56-.38.14-.8.21-1.26.21Z"/>
        <path class="cls-1" d="M97.54,130.96h1.58l3.14,8.31h-1.65l-.55-1.51h-3.47l-.55,1.51h-1.65l3.14-8.31ZM96.32,130.26c0-.5.1-.89.31-1.16.21-.27.5-.41.88-.41.19,0,.35.03.49.09.14.06.27.12.39.19.11.06.21.12.3.18.09.06.19.09.29.09.21,0,.31-.16.31-.49h.96c0,.48-.1.86-.29,1.14-.19.28-.5.43-.92.43-.22,0-.4-.03-.55-.1-.15-.07-.28-.14-.4-.22-.09-.06-.18-.11-.26-.15-.08-.04-.17-.06-.27-.06-.11,0-.18.04-.23.11-.05.07-.07.2-.07.37h-.93ZM97.13,136.31h2.4l-1.2-3.3-1.21,3.3Z"/>
        <path class="cls-1" d="M106.76,139.39c-.59,0-1.15-.11-1.66-.34-.52-.22-.97-.53-1.35-.92-.38-.39-.69-.84-.91-1.36-.22-.52-.33-1.07-.33-1.66s.11-1.15.33-1.66.52-.97.91-1.36c.38-.39.83-.69,1.35-.92.52-.22,1.07-.34,1.66-.34s1.15.11,1.67.34c.52.22.97.53,1.36.92s.69.84.91,1.36c.22.52.34,1.07.34,1.66s-.11,1.15-.33,1.66c-.22.52-.52.97-.91,1.36-.39.39-.84.69-1.36.92-.52.22-1.08.34-1.67.34ZM106.76,137.81c.38,0,.73-.07,1.05-.21.32-.14.6-.33.84-.58.24-.25.42-.53.56-.86.13-.33.2-.67.2-1.04s-.07-.72-.2-1.05c-.14-.33-.32-.61-.56-.85-.24-.24-.52-.44-.84-.58-.33-.14-.68-.22-1.05-.22s-.72.07-1.04.22c-.32.14-.6.34-.84.58-.24.24-.42.53-.55.85-.13.33-.2.68-.2,1.05s.07.71.2,1.04c.13.33.32.61.55.86.24.25.51.44.84.58.32.14.67.21,1.04.21Z"/>
        <path class="cls-1" d="M114.94,130.96h3.28c.46,0,.89.08,1.27.23.38.16.71.37.98.64s.49.59.64.96c.15.37.23.76.23,1.18s-.08.8-.23,1.17c-.15.37-.36.69-.64.97s-.6.5-.98.65c-.38.16-.81.24-1.28.24h-1.65v2.27h-1.62v-8.31ZM116.55,132.43v3.09h1.56c.24,0,.45-.04.65-.11.2-.08.37-.18.51-.32.14-.14.25-.3.32-.49.08-.19.11-.39.11-.62s-.04-.44-.11-.63c-.08-.19-.18-.35-.32-.49-.14-.14-.31-.24-.51-.32-.2-.08-.41-.11-.65-.11h-1.56Z"/>
        <path class="cls-1" d="M124.48,130.96h1.58l3.14,8.31h-1.65l-.55-1.51h-3.47l-.55,1.51h-1.65l3.14-8.31ZM124.07,136.31h2.4l-1.2-3.3-1.21,3.3Z"/>
        <path class="cls-1" d="M133.05,139.39c-.49,0-.94-.08-1.34-.23-.4-.15-.75-.37-1.04-.65-.29-.28-.51-.63-.67-1.04-.16-.41-.23-.87-.23-1.39v-5.11h1.64v5.15c0,.52.15.93.45,1.25.3.32.7.48,1.19.48s.89-.16,1.2-.48c.3-.32.46-.74.46-1.25v-5.15h1.64v5.11c0,.52-.08.98-.24,1.39-.16.41-.38.76-.67,1.04-.29.28-.63.5-1.04.65-.4.15-.85.23-1.34.23Z"/>
        <path class="cls-1" d="M137.96,130.96h1.62v6.75h3.84v1.56h-5.45v-8.31Z"/>
        <path class="cls-1" d="M148.22,139.39c-.59,0-1.15-.11-1.66-.34-.52-.22-.97-.53-1.35-.92-.38-.39-.69-.84-.91-1.36-.22-.52-.33-1.07-.33-1.66s.11-1.15.33-1.66.52-.97.91-1.36c.38-.39.83-.69,1.35-.92.52-.22,1.07-.34,1.66-.34s1.15.11,1.67.34c.52.22.97.53,1.36.92s.69.84.91,1.36c.22.52.34,1.07.34,1.66s-.11,1.15-.33,1.66c-.22.52-.52.97-.91,1.36-.39.39-.84.69-1.36.92-.52.22-1.08.34-1.67.34ZM148.22,137.81c.38,0,.73-.07,1.05-.21.32-.14.6-.33.84-.58.24-.25.42-.53.56-.86.13-.33.2-.67.2-1.04s-.07-.72-.2-1.05c-.14-.33-.32-.61-.56-.85-.24-.24-.52-.44-.84-.58-.33-.14-.68-.22-1.05-.22s-.72.07-1.04.22c-.32.14-.6.34-.84.58-.24.24-.42.53-.55.85-.13.33-.2.68-.2,1.05s.07.71.2,1.04c.13.33.32.61.55.86.24.25.51.44.84.58.32.14.67.21,1.04.21Z"/>
      </g>
    </g>
  </g>
</svg>