<?xml version="1.0" encoding="UTF-8"?>
<svg id="Camada_2" data-name="Camada 2" xmlns="http://www.w3.org/2000/svg" viewBox="0 0 1801.04 459.4">
  <defs>
    <style>
      .cls-1 {
        fill: #aaacae;
      }
    </style>
  </defs>
  <g id="Camada_1-2" data-name="Camada 1">
    <g>
      <g>
        <path class="cls-1" d="M477.05,176.95h74.13c63.45,0,108.68,45.55,108.68,111.51s-45.23,111.51-108.68,111.51h-74.13v-223.02ZM549.93,366.36c47.43,0,73.19-31.41,73.19-77.9s-25.76-77.9-73.19-77.9h-37.38v155.8h37.38Z"/>
        <path class="cls-1" d="M673.69,318.3c0-54.97,40.52-84.81,81.98-84.81s86.69,29.53,78.84,98h-128.16c5.34,28.27,27.64,42.72,55.6,42.72,17.59,0,33.3-5.65,45.23-16.96l16.33,16.96c-14.13,17.59-37.69,28.9-65.33,28.9-44.29,0-84.5-30.47-84.5-84.81ZM803.73,305.73c-1.88-28.27-24.5-42.72-47.75-42.72s-44.92,13.82-49.94,42.72h97.69Z"/>
        <path class="cls-1" d="M865.93,360.39v-95.8h-22.61v-27.96h22.61v-41.78h34.87v41.78h32.98v27.96h-32.98v89.52c0,9.42,5.03,16.65,17.9,16.65,3.77,0,9.11-.63,15.08-2.83v27.33c-5.97,5.03-16.65,6.6-25.44,6.6-24.81,0-42.41-12.25-42.41-41.46Z"/>
        <path class="cls-1" d="M955.76,236.63h34.56v42.09c5.65-24.5,21.99-45.23,51.83-45.23,3.77,0,6.91.31,10.37,1.26v32.98c-3.46-.63-6.29-.94-10.05-.94-31.1,0-52.14,22.62-52.14,56.85v76.33h-34.56v-163.34Z"/>
        <path class="cls-1" d="M1060.05,318.3c0-56.23,40.52-84.81,79.16-84.81,29.84,0,50.57,16.33,56.54,29.21h.94v-26.07h34.55v163.34h-34.55v-26.07h-.94c-5.97,12.88-26.7,29.21-56.54,29.21-38.64,0-79.16-28.58-79.16-84.81ZM1145.8,371.7c26.38,0,51.83-18.22,51.83-53.4s-25.44-53.4-51.83-53.4-51.52,18.22-51.52,53.4,25.44,53.4,51.52,53.4Z"/>
        <path class="cls-1" d="M1259.51,236.63h34.56v24.5c8.79-15.08,26.07-27.64,52.46-27.64,33.61,0,62.51,21.05,62.51,70.36v96.12h-34.87v-90.46c0-28.58-15.7-44.6-39.89-44.6s-40.21,16.02-40.21,44.6v90.46h-34.56v-163.34Z"/>
        <path class="cls-1" d="M1431.02,382.69c0-11.94,9.11-20.1,20.1-20.1s20.42,8.17,20.42,20.1-9.11,20.42-20.42,20.42-20.1-8.48-20.1-20.42Z"/>
        <path class="cls-1" d="M1488.18,349.08l16.33-7.22c6.28,25.76,28.27,42.72,56.85,42.72,26.7,0,49-14.76,49-42.72,0-26.38-19.16-37.69-46.8-48.69l-15.08-5.97c-33.61-13.19-50.88-32.04-50.88-58.74,0-32.98,26.7-54.65,61.57-54.65s57.17,21.99,65.33,46.17l-15.39,7.54c-8.48-21.36-24.19-35.49-49.32-35.49s-42.72,13.82-42.72,36.44c0,17.9,10.68,31.72,38.32,42.4l15.08,5.97c35.18,14.13,59.99,29.84,59.99,65.02,0,39.58-32.04,61.25-69.11,61.25s-65.96-21.99-73.19-54.03Z"/>
        <path class="cls-1" d="M1655.92,176.95h69.73c47.75,0,75.39,30.47,75.39,70.99s-27.64,71.62-75.39,71.62h-50.25v80.41h-19.48v-223.02ZM1724.08,301.02c35.18,0,56.85-19.16,56.85-53.08s-21.67-52.46-56.85-52.46h-48.69v105.54h48.69Z"/>
      </g>
      <g>
        <g>
          <path class="cls-1" d="M198.67,229.69v.16l-.02-.02s.02-.09.02-.14Z"/>
          <path class="cls-1" d="M198.65,229.83l.02.02v-.16s0,.09-.02.14ZM184.76,457.32v.16l8.14-1.39c-2.71.46-5.42.88-8.14,1.23ZM174.95,229.53l-16.69,7.47h1.37l15.63-7.33-.3-.14Z"/>
          <path class="cls-1" d="M153.74,0H0v452.45c0,3.85,3.11,6.96,6.96,6.96h146.78c10.36,0,20.77-.7,31.02-2.09,2.71-.35,5.43-.76,8.14-1.23,46.9-8.09,89.54-30.21,123.25-63.99,43.4-43.36,67.3-101.02,67.3-162.41C383.45,103.03,280.39,0,153.74,0ZM174.95,229.53l.3.14-15.63,7.33L13.91,305.34v-150.63l161.04,74.82ZM184.76,443.29c-10.25,1.46-20.66,2.2-31.02,2.2H13.91v-124.78l170.85-80.15v202.73ZM198.67,229.85l-.02-.02s.02-.09.02-.14v.16Z"/>
        </g>
        <path class="cls-1" d="M198.65,229.83l.02.02v-.16s0,.09-.02.14Z"/>
      </g>
    </g>
  </g>
</svg>