<?xml version="1.0" encoding="UTF-8"?>
<svg id="Camada_2" data-name="Camada 2" xmlns="http://www.w3.org/2000/svg" viewBox="0 0 1429.18 302.89">
  <defs>
    <style>
      .cls-1 {
        fill: #aaacae;
      }
    </style>
  </defs>
  <g id="Camada_1-2" data-name="Camada 1">
    <g>
      <g>
        <path class="cls-1" d="M991.24,140.29h-27.64V33.98h43.99c11.94,0,21.08,3.1,27.42,9.31,6.34,6.2,9.52,14.95,9.52,26.23s-3.17,20.02-9.52,26.23-15.49,9.31-27.42,9.31h-16.36v35.25ZM991.24,82.77h9.17c10.15,0,15.23-4.42,15.23-13.25s-5.08-13.25-15.23-13.25h-9.17v26.51Z"/>
        <path class="cls-1" d="M1108.55,121.82h-39.48l-6.34,18.47h-29.47l40.47-106.31h30.17l40.47,106.31h-29.47l-6.34-18.47ZM1101.22,100.82l-12.41-35.39-12.41,35.39h24.82Z"/>
        <path class="cls-1" d="M1171.29,33.98v57.81c0,3.1.12,6.28.35,9.52.23,3.24.94,6.18,2.11,8.81,1.17,2.63,3.03,4.77,5.57,6.42,2.54,1.65,6.11,2.47,10.72,2.47s8.15-.82,10.65-2.47c2.49-1.64,4.35-3.78,5.57-6.42,1.22-2.63,1.95-5.57,2.19-8.81.23-3.24.35-6.42.35-9.52v-57.81h27.5v61.62c0,16.55-3.79,28.62-11.35,36.24-7.57,7.61-19.2,11.42-34.9,11.42s-27.35-3.81-34.97-11.42c-7.61-7.62-11.42-19.69-11.42-36.24v-61.62h27.64Z"/>
        <path class="cls-1" d="M1276.48,33.98v82.91h33.13v23.41h-60.77V33.98h27.64Z"/>
        <path class="cls-1" d="M1311.44,87.14c0-7.9,1.46-15.25,4.37-22.07,2.91-6.81,6.96-12.76,12.13-17.84,5.17-5.08,11.35-9.05,18.54-11.92,7.19-2.87,15.11-4.3,23.76-4.3s16.45,1.43,23.69,4.3c7.24,2.87,13.47,6.84,18.68,11.92s9.28,11.02,12.2,17.84c2.91,6.82,4.37,14.17,4.37,22.07s-1.46,15.25-4.37,22.07c-2.92,6.82-6.98,12.76-12.2,17.84s-11.45,9.05-18.68,11.92c-7.24,2.87-15.14,4.3-23.69,4.3s-16.57-1.43-23.76-4.3c-7.19-2.87-13.37-6.84-18.54-11.92-5.17-5.08-9.21-11.02-12.13-17.84-2.92-6.81-4.37-14.17-4.37-22.07ZM1340.35,87.14c0,4.23.8,8.13,2.4,11.7,1.6,3.57,3.76,6.68,6.49,9.31,2.73,2.63,5.9,4.68,9.52,6.13,3.62,1.46,7.45,2.19,11.49,2.19s7.87-.73,11.49-2.19c3.62-1.46,6.81-3.5,9.59-6.13,2.77-2.63,4.96-5.73,6.56-9.31,1.6-3.57,2.4-7.47,2.4-11.7s-.8-8.13-2.4-11.7c-1.6-3.57-3.79-6.67-6.56-9.31-2.77-2.63-5.97-4.67-9.59-6.13-3.62-1.46-7.45-2.19-11.49-2.19s-7.87.73-11.49,2.19c-3.62,1.46-6.79,3.5-9.52,6.13-2.73,2.63-4.89,5.74-6.49,9.31-1.6,3.57-2.4,7.47-2.4,11.7Z"/>
      </g>
      <g>
        <path class="cls-1" d="M683.04,61.19c-3.01-2.44-6.02-4.25-9.02-5.43-3.01-1.17-5.92-1.76-8.74-1.76-3.57,0-6.49.85-8.74,2.54-2.26,1.69-3.38,3.9-3.38,6.63,0,1.88.56,3.43,1.69,4.65,1.13,1.22,2.61,2.28,4.44,3.17,1.83.89,3.9,1.67,6.2,2.33,2.3.66,4.58,1.36,6.84,2.12,9.02,3.01,15.63,7.03,19.81,12.05,4.18,5.03,6.27,11.59,6.27,19.67,0,5.45-.92,10.39-2.75,14.8-1.83,4.42-4.51,8.2-8.04,11.35-3.53,3.15-7.85,5.59-12.97,7.33-5.12,1.74-10.93,2.61-17.41,2.61-13.44,0-25.9-3.99-37.36-11.98l11.84-22.28c4.14,3.67,8.22,6.39,12.27,8.18,4.04,1.79,8.04,2.68,11.98,2.68,4.51,0,7.87-1.03,10.08-3.1,2.21-2.07,3.31-4.42,3.31-7.05,0-1.6-.28-2.98-.85-4.16-.56-1.17-1.5-2.26-2.82-3.24-1.32-.99-3.03-1.9-5.15-2.75-2.11-.85-4.68-1.79-7.68-2.82-3.57-1.13-7.07-2.37-10.5-3.74-3.43-1.36-6.49-3.17-9.17-5.43-2.68-2.26-4.84-5.1-6.49-8.53-1.65-3.43-2.47-7.78-2.47-13.04s.87-10.03,2.61-14.31c1.74-4.28,4.18-7.94,7.33-11,3.15-3.05,7-5.43,11.56-7.12,4.56-1.69,9.66-2.54,15.3-2.54,5.26,0,10.76.73,16.5,2.19,5.73,1.46,11.23,3.59,16.5,6.42l-11,21.57Z"/>
        <path class="cls-1" d="M772.86,121.82h-39.48l-6.34,18.47h-29.47l40.47-106.31h30.17l40.47,106.31h-29.47l-6.34-18.47ZM722.24,22.84c0-6.96,1.6-12.48,4.79-16.57,3.19-4.09,7.28-6.13,12.27-6.13,1.97,0,4.18.31,6.63.92,2.44.61,4.87,1.27,7.26,1.97,2.4.71,4.6,1.34,6.63,1.9,2.02.56,3.64.85,4.86.85,3.01,0,5.03-1.93,6.06-5.78h13.96c-.94,8.46-2.99,14.38-6.13,17.77-3.15,3.38-7.4,5.08-12.76,5.08-2.63,0-5.22-.3-7.76-.92-2.54-.61-4.93-1.27-7.19-1.97-2.26-.7-4.28-1.36-6.06-1.97-1.79-.61-3.29-.92-4.51-.92-1.04,0-1.93.38-2.68,1.13-.75.75-1.46,2.3-2.12,4.65h-13.25ZM765.53,100.82l-12.41-35.39-12.41,35.39h24.82Z"/>
        <path class="cls-1" d="M803.17,87.14c0-7.9,1.46-15.25,4.37-22.07,2.91-6.81,6.96-12.76,12.13-17.84,5.17-5.08,11.35-9.05,18.54-11.92,7.19-2.87,15.11-4.3,23.76-4.3s16.45,1.43,23.69,4.3c7.24,2.87,13.47,6.84,18.68,11.92s9.28,11.02,12.2,17.84c2.91,6.82,4.37,14.17,4.37,22.07s-1.46,15.25-4.37,22.07c-2.92,6.82-6.98,12.76-12.2,17.84s-11.45,9.05-18.68,11.92c-7.24,2.87-15.14,4.3-23.69,4.3s-16.57-1.43-23.76-4.3c-7.19-2.87-13.37-6.84-18.54-11.92-5.17-5.08-9.21-11.02-12.13-17.84-2.92-6.81-4.37-14.17-4.37-22.07ZM832.08,87.14c0,4.23.8,8.13,2.4,11.7,1.6,3.57,3.76,6.68,6.49,9.31,2.73,2.63,5.9,4.68,9.52,6.13,3.62,1.46,7.45,2.19,11.49,2.19s7.87-.73,11.49-2.19c3.62-1.46,6.81-3.5,9.59-6.13,2.77-2.63,4.96-5.73,6.56-9.31,1.6-3.57,2.4-7.47,2.4-11.7s-.8-8.13-2.4-11.7c-1.6-3.57-3.79-6.67-6.56-9.31-2.77-2.63-5.97-4.67-9.59-6.13-3.62-1.46-7.45-2.19-11.49-2.19s-7.87.73-11.49,2.19c-3.62,1.46-6.79,3.5-9.52,6.13-2.73,2.63-4.89,5.74-6.49,9.31-1.6,3.57-2.4,7.47-2.4,11.7Z"/>
      </g>
      <g>
        <path class="cls-1" d="M647.1,266.6c-1.75-2.27-4.01-3.7-7.08-3.7s-5.77,2.15-5.77,5.07c0,7.58,18.74,4.42,18.74,19.52,0,9.01-5.89,15.4-15.55,15.4-6.52,0-11.28-3.58-14.54-8.78l5.95-5.55c1.25,3.46,4.58,6.57,8.52,6.57s6.08-3.04,6.08-6.51c0-4.66-4.51-5.97-8.21-7.34-6.08-2.39-10.53-5.31-10.53-12.3,0-7.46,5.83-13.49,13.79-13.49,4.2,0,10.03,1.97,12.91,5.02l-4.33,6.09Z"/>
        <path class="cls-1" d="M673.68,292.2l-3.89,9.49h-9.72l18.43-46.2h7.15l17.93,46.2h-9.84l-3.64-9.49h-16.42ZM669.92,252.03c.31-3.46,2.51-8.3,6.83-8.3,1.5,0,3.26.66,4.83,1.25,1.63.6,3.07,1.31,4.07,1.31,1.75,0,2.26-1.2,2.95-2.51h5.2c-.69,3.82-2.88,8.42-7.58,8.42-1.32,0-2.82-.66-4.33-1.31s-2.95-1.31-4.14-1.31c-1.57,0-2.32,1.19-2.7,2.45h-5.14ZM681.64,268.69h-.13l-5.2,16.36h11.22l-5.89-16.36Z"/>
        <path class="cls-1" d="M733.73,302.89c-14.42,0-23.38-10.51-23.38-23.76s9.28-23.64,23.38-23.64,23.38,10.27,23.38,23.64-8.96,23.76-23.38,23.76ZM733.73,264.15c-8.71,0-13.85,7.34-13.85,14.62s3.64,15.46,13.85,15.46,13.85-8.54,13.85-15.46c0-7.28-5.14-14.62-13.85-14.62Z"/>
        <path class="cls-1" d="M801.37,301.7h-9.21v-45.01h12.54c9.9,0,16.36,3.76,16.36,13.97,0,9.55-5.45,14.21-15.11,14.21h-4.58v16.83ZM801.37,277.58h1.88c5.45,0,8.4-1.13,8.4-6.98s-3.51-6.63-8.65-6.63h-1.63v13.61Z"/>
        <path class="cls-1" d="M836.1,292.2l-3.89,9.49h-9.72l18.43-46.2h7.15l17.93,46.2h-9.84l-3.64-9.49h-16.42ZM844.06,268.69h-.13l-5.2,16.36h11.22l-5.89-16.36Z"/>
        <path class="cls-1" d="M874.78,256.69h9.21v25.19c0,5.55.5,13.37,8.34,13.37s8.34-7.82,8.34-13.37v-25.19h9.21v26.92c0,10.98-4.89,19.28-17.55,19.28s-17.55-8.3-17.55-19.28v-26.92Z"/>
        <path class="cls-1" d="M931.82,294.05h13.04v7.64h-22.25v-45.01h9.21v37.37Z"/>
        <path class="cls-1" d="M975.13,302.89c-14.42,0-23.38-10.51-23.38-23.76s9.28-23.64,23.38-23.64,23.38,10.27,23.38,23.64-8.96,23.76-23.38,23.76ZM975.13,264.15c-8.71,0-13.85,7.34-13.85,14.62s3.64,15.46,13.85,15.46,13.85-8.54,13.85-15.46c0-7.28-5.14-14.62-13.85-14.62Z"/>
        <path class="cls-1" d="M1055.81,266.6c-1.76-2.27-4.01-3.7-7.08-3.7s-5.77,2.15-5.77,5.07c0,7.58,18.74,4.42,18.74,19.52,0,9.01-5.89,15.4-15.54,15.4-6.52,0-11.28-3.58-14.54-8.78l5.96-5.55c1.25,3.46,4.58,6.57,8.53,6.57s6.08-3.04,6.08-6.51c0-4.66-4.51-5.97-8.21-7.34-6.08-2.39-10.53-5.31-10.53-12.3,0-7.46,5.83-13.49,13.79-13.49,4.2,0,10.03,1.97,12.91,5.02l-4.33,6.09Z"/>
        <path class="cls-1" d="M1082.39,292.2l-3.89,9.49h-9.72l18.43-46.2h7.15l17.93,46.2h-9.84l-3.64-9.49h-16.42ZM1078.63,252.03c.31-3.46,2.51-8.3,6.83-8.3,1.5,0,3.26.66,4.83,1.25,1.63.6,3.07,1.31,4.07,1.31,1.75,0,2.26-1.2,2.95-2.51h5.2c-.69,3.82-2.88,8.42-7.58,8.42-1.32,0-2.82-.66-4.32-1.31-1.5-.66-2.95-1.31-4.14-1.31-1.57,0-2.32,1.19-2.7,2.45h-5.14ZM1090.35,268.69h-.13l-5.2,16.36h11.22l-5.89-16.36Z"/>
        <path class="cls-1" d="M1142.44,302.89c-14.42,0-23.38-10.51-23.38-23.76s9.28-23.64,23.38-23.64,23.38,10.27,23.38,23.64-8.96,23.76-23.38,23.76ZM1142.44,264.15c-8.71,0-13.85,7.34-13.85,14.62s3.64,15.46,13.85,15.46,13.85-8.54,13.85-15.46c0-7.28-5.14-14.62-13.85-14.62Z"/>
        <path class="cls-1" d="M1216.22,301.7h-9.21v-37.37h-9.53v-7.64h28.27v7.64h-9.53v37.37Z"/>
        <path class="cls-1" d="M1256.46,302.89c-14.42,0-23.38-10.51-23.38-23.76s9.28-23.64,23.38-23.64,23.38,10.27,23.38,23.64-8.96,23.76-23.38,23.76ZM1256.46,264.15c-8.71,0-13.85,7.34-13.85,14.62s3.64,15.46,13.85,15.46,13.85-8.54,13.85-15.46c0-7.28-5.14-14.62-13.85-14.62Z"/>
        <path class="cls-1" d="M1290.56,256.69h13.16c13.67,0,22.82,9.73,22.82,22.56s-9.4,22.45-22.88,22.45h-13.1v-45.01ZM1299.78,294.05h1.5c11.35,0,15.73-5.97,15.73-14.86,0-9.79-5.27-14.86-15.73-14.86h-1.5v29.73Z"/>
        <path class="cls-1" d="M1358.39,302.89c-14.42,0-23.38-10.51-23.38-23.76s9.28-23.64,23.38-23.64,23.38,10.27,23.38,23.64-8.96,23.76-23.38,23.76ZM1358.39,264.15c-8.71,0-13.85,7.34-13.85,14.62s3.64,15.46,13.85,15.46,13.85-8.54,13.85-15.46c0-7.28-5.14-14.62-13.85-14.62Z"/>
        <path class="cls-1" d="M1414.74,266.6c-1.76-2.27-4.01-3.7-7.08-3.7s-5.77,2.15-5.77,5.07c0,7.58,18.74,4.42,18.74,19.52,0,9.01-5.89,15.4-15.54,15.4-6.52,0-11.28-3.58-14.54-8.78l5.96-5.55c1.25,3.46,4.58,6.57,8.53,6.57s6.08-3.04,6.08-6.51c0-4.66-4.51-5.97-8.21-7.34-6.08-2.39-10.53-5.31-10.53-12.3,0-7.46,5.83-13.49,13.79-13.49,4.2,0,10.03,1.97,12.91,5.02l-4.33,6.09Z"/>
      </g>
      <g>
        <path class="cls-1" d="M133.79,34.1h-66.89C29.95,34.1,0,64.05,0,101h0c0,36.94,29.95,66.89,66.89,66.89H0v133.79h200.68c36.94,0,66.89-29.95,66.89-66.89h0c0-36.94-29.95-66.89-66.89-66.89h66.89V34.1h-133.79Z"/>
        <path class="cls-1" d="M501.71,34.1h-167.24c-18.47,0-33.45,14.97-33.45,33.45v234.13l133.79-66.89h66.89c36.94,0,66.89-29.95,66.89-66.89h0v-66.89h0c0-36.94-29.95-66.89-66.89-66.89Z"/>
      </g>
      <g>
        <path class="cls-1" d="M670.43,189.26c-.13,7.04-.65,13.06-5.03,19.07-4.83,6.59-12.08,9.47-20.3,9.47-15.47,0-26.24-10.3-26.24-25.47s10.84-25.98,26.7-25.98c10.12,0,17.95,4.48,22.19,13.5l-12.14,4.99c-1.76-4.61-5.48-7.68-10.64-7.68-8.42,0-12.79,7.87-12.79,15.23s4.57,15.1,12.99,15.1c5.55,0,9.79-2.82,10.31-8.38h-10.44v-9.86h25.39Z"/>
        <path class="cls-1" d="M731.07,191.18c0,15.62-11.42,26.62-27.22,26.62s-27.22-11.01-27.22-26.62c0-14.59,13.06-24.83,27.22-24.83s27.22,10.24,27.22,24.83ZM689.95,191.25c0,8.32,6.27,14.4,13.9,14.4s13.9-6.08,13.9-14.4c0-6.66-6.27-12.74-13.9-12.74s-13.9,6.08-13.9,12.74Z"/>
        <path class="cls-1" d="M757.9,197.26l11.95-29.31h13.9l-21.02,48.25h-9.92l-20.69-48.25h13.9l11.88,29.31Z"/>
        <path class="cls-1" d="M802.81,178.58v8.06h14.43v10.62h-14.43v8.32h15.21v10.62h-28v-48.25h28v10.62h-15.21Z"/>
        <path class="cls-1" d="M869.59,216.21h-15.93l-12.08-18.56h-.13v18.56h-12.79v-48.25h19.13c9.73,0,17.1,4.54,17.1,14.85,0,6.66-3.79,12.42-10.77,13.63l15.47,19.77ZM841.46,189.58h1.24c4.18,0,8.88-.77,8.88-6.02s-4.7-6.02-8.88-6.02h-1.24v12.03Z"/>
        <path class="cls-1" d="M875.08,167.95h12.79l23.43,29.5h.13v-29.5h12.79v48.25h-12.79l-23.43-29.57h-.13v29.57h-12.79v-48.25Z"/>
        <path class="cls-1" d="M984.81,191.18c0,15.62-11.42,26.62-27.22,26.62s-27.22-11.01-27.22-26.62c0-14.59,13.06-24.83,27.22-24.83s27.22,10.24,27.22,24.83ZM943.69,191.25c0,8.32,6.27,14.4,13.9,14.4s13.9-6.08,13.9-14.4c0-6.66-6.27-12.74-13.9-12.74s-13.9,6.08-13.9,12.74Z"/>
        <path class="cls-1" d="M1018.76,167.95h18.15c13.71,0,25,10.56,25,24.13s-11.36,24.13-25,24.13h-18.15v-48.25ZM1031.55,205.58h2.87c7.64,0,14.17-4.1,14.17-13.5,0-8.64-5.81-13.5-14.04-13.5h-3v27.01Z"/>
        <path class="cls-1" d="M1122.68,191.18c0,15.62-11.42,26.62-27.22,26.62s-27.22-11.01-27.22-26.62c0-14.59,13.06-24.83,27.22-24.83s27.22,10.24,27.22,24.83ZM1081.56,191.25c0,8.32,6.27,14.4,13.9,14.4s13.9-6.08,13.9-14.4c0-6.66-6.27-12.74-13.9-12.74s-13.9,6.08-13.9,12.74Z"/>
        <path class="cls-1" d="M1164.85,178.58v8.06h14.43v10.62h-14.43v8.32h15.21v10.62h-28v-48.25h28v10.62h-15.21Z"/>
        <path class="cls-1" d="M1218.64,180.37c-2.35-1.92-5.35-3.2-8.49-3.2-2.35,0-5.48,1.34-5.48,4.03s3.46,3.9,5.68,4.61l3.26.96c6.85,1.98,12.14,5.38,12.14,13.18,0,4.8-1.17,9.73-5.09,12.99-3.85,3.2-9.01,4.54-13.97,4.54-6.2,0-12.27-2.05-17.3-5.5l5.48-10.11c3.2,2.75,6.98,4.99,11.36,4.99,3,0,6.2-1.47,6.2-4.86s-5.03-4.74-7.77-5.5c-8.03-2.24-13.32-4.29-13.32-13.63s7.12-16.19,16.97-16.19c4.96,0,11.03,1.54,15.41,3.97l-5.09,9.73Z"/>
        <path class="cls-1" d="M1252.52,216.21h-12.79v-37.63h-10.58v-10.62h33.94v10.62h-10.58v37.63Z"/>
        <path class="cls-1" d="M1280.01,207.82l-3.39,8.38h-13.58l18.93-48.25h13.97l18.54,48.25h-13.64l-3.2-8.38h-17.62ZM1288.95,182.86h-.13l-5.29,15.36h10.64l-5.22-15.36Z"/>
        <path class="cls-1" d="M1322.18,167.95h18.15c13.71,0,25,10.56,25,24.13s-11.36,24.13-25,24.13h-18.15v-48.25ZM1334.97,205.58h2.87c7.64,0,14.17-4.1,14.17-13.5,0-8.64-5.81-13.5-14.04-13.5h-3v27.01Z"/>
        <path class="cls-1" d="M1426.3,191.18c0,15.62-11.42,26.62-27.22,26.62s-27.22-11.01-27.22-26.62c0-14.59,13.06-24.83,27.22-24.83s27.22,10.24,27.22,24.83ZM1385.17,191.25c0,8.32,6.27,14.4,13.9,14.4s13.9-6.08,13.9-14.4c0-6.66-6.27-12.74-13.9-12.74s-13.9,6.08-13.9,12.74Z"/>
      </g>
    </g>
  </g>
</svg>