<?xml version="1.0" encoding="UTF-8"?>
<svg id="Camada_2" data-name="Camada 2" xmlns="http://www.w3.org/2000/svg" viewBox="0 0 1627.39 492.64">
  <defs>
    <style>
      .cls-1 {
        fill: #aaacae;
      }
    </style>
  </defs>
  <g id="Camada_1-2" data-name="Camada 1">
    <g>
      <path class="cls-1" d="M95.41,149.98h-47.43v-30.06h47.43v30.06ZM94.48,264.26h-45.56v-102.71h45.56v102.71Z"/>
      <path class="cls-1" d="M1269.69,149.98h-47.43v-30.06h47.43v30.06ZM1268.76,264.26h-45.56v-102.71h45.56v102.71Z"/>
      <path class="cls-1" d="M1438.71,149.98h-47.43v-30.06h47.43v30.06ZM1437.78,264.26h-45.56v-102.71h45.56v102.71Z"/>
      <path class="cls-1" d="M179.09,264.26v-48.85c0-6.76-.36-11.46-1.25-13.9-1.43-4.7-4.66-7.14-10.57-7.14-4.84,0-9.67,1.69-12,3.19v66.7h-41.92v-103.34h41.92v11.46c7.17-9.02,19.88-14.28,31.88-14.28,15.23,0,25.44,6.01,30.63,18.23,10.21-12.21,22.21-18.23,35.83-18.23,22.03,0,34.39,13.53,34.39,38.89v67.27h-42.63v-48.85c0-6.76-.36-11.46-1.07-13.9-1.43-4.7-4.66-7.14-10.57-7.14-4.84,0-9.85,1.69-12.18,3.19v66.7h-42.45Z"/>
      <path class="cls-1" d="M376.9,268.48c-9.6,0-17.7-2.26-25.04-6.97v42.93h-44.44v-141.4h44.44v10.73c11.49-10.36,19.21-13.56,31.44-13.56,26.74,0,42.36,19.02,42.36,51.97s-22.41,56.3-48.77,56.3ZM363.91,195.24c-4.14,0-8.28.75-12.24,2.26v39.92l3.77.19h4.33c15.44,0,21.65-7.15,21.65-22.22s-5.08-20.15-17.51-20.15Z"/>
      <path class="cls-1" d="M485.27,211.91l.29,54.44h-48.88v-105.49h45.46v15.54c12.28-12.08,20.91-16.3,31.84-16.3,2.88,0,5.18.19,7.29.38v39.7h-4.03c-20.56-3.14-31.97,11.73-31.97,11.73Z"/>
      <path class="cls-1" d="M565.31,222.91c.72,11.68,10.93,17.8,29.39,17.8,10.93,0,23.11-3.89,33.15-11.13h4.84v29.86c-7.7,3.15-15.05,5.38-21.68,6.49-6.45,1.11-15.23,1.85-26.34,1.85-37.63,0-61.64-20.21-61.64-53.04s22.76-54.71,59.85-54.71c34.94,0,51.6,17.43,51.6,49.7v13.17h-69.16ZM594.16,201.02c-.36-10.39-4.48-15.39-13.8-15.39s-14.69,5.19-15.05,15.39h28.85Z"/>
      <path class="cls-1" d="M756.59,264.33h-43.67v-47.91c0-16.03-2.58-20.64-12.53-20.64-4.61,0-9.03,1.11-12.9,3.13v65.42h-43.49v-101.35h43.49v11.24c7.37-8.84,20.82-14,33.35-14,23.22,0,35.75,13.64,35.75,38.14v65.97Z"/>
      <path class="cls-1" d="M815.05,264.33c-19.93,0-39.13-3.23-48.11-7.54v-31.77h3.41c7.54,9.33,24.23,15.8,40.21,15.8,10.59,0,15.8-1.62,15.8-5.03,0-3.59-2.33-4.85-10.77-6.46l-9.69-1.62c-27.64-5.03-39.13-15.44-39.13-33.03,0-20.64,23.34-34.29,51.16-34.29,16.34,0,34.11,3.05,42.9,6.46v31.05h-3.41c-12.57-9.15-24.23-13.64-38.24-13.64-7.72,0-12.39,2.33-12.39,5.56,0,3.41,2.15,4.13,10.77,5.56l11.67,2.51c25.49,5.03,36.98,14.18,36.98,31.05,0,21.72-19.92,35.36-51.16,35.36Z"/>
      <path class="cls-1" d="M943.68,253.52c-7.36,7.91-20.61,12.51-35.33,12.51-20.79,0-36.25-13.25-36.25-31.1,0-22.63,17.11-33.31,62.93-35.7l9.02-.37v-2.58c0-5.7-6.62-8.65-22.27-8.65-12.14,0-14.17.37-35.88,6.44h-4.05v-28.89c15.46-3.5,30.73-5.15,46.19-5.15,41.22,0,58.7,10.12,58.7,35.15v69h-43.06v-10.67ZM943.68,218.56c-10.49.92-17.3,2.21-21.53,3.68-4.23,1.47-6.62,3.5-6.62,8.65,0,6.07,3.5,9.2,10.3,9.2,5.52,0,11.41-1.66,17.85-4.97v-16.56Z"/>
      <path class="cls-1" d="M1058.41,268.01c-40.06,0-63.98-20.42-63.98-55.81s27.42-56.2,63.98-56.2c40.84,0,64.37,21,64.37,56.2s-24.11,55.81-64.37,55.81ZM1058.44,236.7c9.09,0,12.78-7.97,12.78-23.72s-3.69-24.11-12.78-24.11-12.65,6.42-12.65,24.11c0,16.53,3.56,23.72,12.65,23.72Z"/>
      <path class="cls-1" d="M1190.27,156.37c0-6.56,2.12-10.22,9.05-10.22,6.17,0,10.02.77,11.56,2.12h3.47v-27.73c-7.12-2.12-14.64-3.27-22.35-3.27-30.82,0-46.8,13.29-46.8,38.9v5.54h-19.22v28.55h19.22v74.34h45.64v-72.34h20.6v-28.59h-21.18v-7.31Z"/>
      <path class="cls-1" d="M1282.68,212.54c0-33.75,22.86-51.96,60.89-51.96,12.5,0,24.46,2.5,35.71,7.5v32.85h-6.25c-9.29-8.04-16.43-10.71-24.46-10.71-15.18,0-21.96,6.96-21.96,22.32s6.61,21.78,22.68,21.78c8.93,0,15.89-2.32,20.36-6.96l3.39-3.39h6.25v32.5c-10.36,4.64-21.78,7.14-34.28,7.14-39.82,0-62.32-17.86-62.32-51.07Z"/>
      <path class="cls-1" d="M1521.11,253.46c-7.31,7.86-20.48,12.43-35.1,12.43-20.66,0-36.02-13.16-36.02-30.9,0-22.49,17-33.09,62.53-35.47l8.96-.37v-2.56c0-5.67-6.58-8.59-22.12-8.59-12.07,0-14.08.37-35.65,6.4h-4.02v-28.71c15.36-3.47,30.53-5.12,45.89-5.12,40.96,0,58.32,10.06,58.32,34.92v68.56h-42.78v-10.6ZM1521.11,218.72c-10.42.91-17.19,2.19-21.39,3.66-4.2,1.46-6.58,3.47-6.58,8.59,0,6.03,3.47,9.14,10.24,9.14,5.48,0,11.34-1.65,17.74-4.94v-16.45Z"/>
      <path class="cls-1" d="M1627.39,264.26h-47.63V119.92h47.63v144.35Z"/>
      <g>
        <path class="cls-1" d="M80.96,455.78h27.33v1.57c0,7.27-2.16,15.14-6.29,20.74-1.97,2.65-9.34,11.79-24.38,11.79-19.46,0-34.01-14.84-34.01-33.91s14.65-33.91,34.2-33.91c6.29,0,13.66,1.57,20.05,6.49,2.95,2.26,5.7,5.21,7.57,7.77l-5.41,4.91c-1.87-2.65-4.03-5.01-6.19-6.78-3.15-2.55-8.06-5.5-15.92-5.5-15.82,0-26.83,11.89-26.83,27.13,0,17.89,14.25,26.93,26.64,26.93,8.75,0,16.32-4.42,20.05-11.01,1.18-2.07,2.46-5.21,2.65-9.34h-19.46v-6.88Z"/>
        <path class="cls-1" d="M117.43,455.98c0-19.56,15.23-33.91,34.11-33.91s34.11,14.35,34.11,33.91-15.14,33.91-34.11,33.91-34.11-14.45-34.11-33.91ZM124.9,455.98c0,15.04,11.89,27.03,26.64,27.03s26.64-11.99,26.64-27.03-11.89-27.03-26.64-27.03-26.64,11.99-26.64,27.03Z"/>
        <path class="cls-1" d="M196.57,423.15l18.48,50.03,18.48-50.03h8.06l-26.54,69.49-26.54-69.49h8.06Z"/>
        <path class="cls-1" d="M284.15,430.03h-26.74v19.46h25.95v6.88h-25.95v25.46h26.74v6.88h-34.01v-65.56h34.01v6.88Z"/>
        <path class="cls-1" d="M309.35,423.15c4.42,0,11.01.3,15.92,3.64,3.83,2.56,7.17,7.57,7.17,14.55,0,10.03-6.58,17.4-16.51,18.09l20.84,29.29h-8.85l-19.95-28.7h-1.87v28.7h-7.27v-65.56h10.52ZM306.1,453.52h4.62c9.04,0,14.45-4.32,14.45-11.99,0-3.64-1.08-7.27-5.21-9.63-2.95-1.67-6.29-1.87-9.44-1.87h-4.42v23.49Z"/>
        <path class="cls-1" d="M344.48,488.71v-68.31l51.11,53.57v-50.82h7.27v68.51l-51.11-53.57v50.62h-7.27Z"/>
        <path class="cls-1" d="M411.55,455.98c0-19.56,15.23-33.91,34.11-33.91s34.11,14.35,34.11,33.91-15.14,33.91-34.11,33.91-34.11-14.45-34.11-33.91ZM419.02,455.98c0,15.04,11.89,27.03,26.64,27.03s26.64-11.99,26.64-27.03-11.89-27.03-26.64-27.03-26.64,11.99-26.64,27.03Z"/>
        <path class="cls-1" d="M514.66,423.15h13.37c6.59,0,15.92.69,24.18,7.67,6,5.01,11.21,13.37,11.21,25.16,0,13.76-6.78,21.13-11.5,25.16-6,5.11-12.29,7.57-23.98,7.57h-13.27v-65.56ZM521.93,481.83h6.39c5.21,0,12.38-.59,18.77-5.9,4.91-4.13,8.85-10.62,8.85-19.95,0-15.73-11.01-25.95-27.62-25.95h-6.39v51.8Z"/>
        <path class="cls-1" d="M572.55,455.98c0-19.56,15.23-33.91,34.11-33.91s34.11,14.35,34.11,33.91-15.14,33.91-34.11,33.91-34.11-14.45-34.11-33.91ZM580.02,455.98c0,15.04,11.89,27.03,26.64,27.03s26.64-11.99,26.64-27.03-11.89-27.03-26.64-27.03-26.64,11.99-26.64,27.03Z"/>
        <path class="cls-1" d="M709.67,430.03h-26.74v19.46h25.95v6.88h-25.95v25.46h26.74v6.88h-34.01v-65.56h34.01v6.88Z"/>
        <path class="cls-1" d="M749.64,436.12c-.88-1.77-2.36-3.74-3.83-4.91-1.28-.98-3.64-2.26-7.37-2.26-6.49,0-11.01,4.03-11.01,10.12,0,2.55.69,4.03,2.46,5.7,1.97,1.97,4.42,3.05,6.88,4.13l6.29,2.75c3.83,1.67,7.37,3.44,10.12,6.19,3.34,3.34,4.72,7.18,4.72,11.89,0,12.09-8.94,20.15-20.74,20.15-4.33,0-9.73-.88-14.25-5.31-3.24-3.15-5.21-7.67-6.09-11.6l7.08-1.97c.49,3.44,2.06,6.39,3.93,8.35,2.85,2.85,6.09,3.64,9.44,3.64,8.94,0,13.17-6.39,13.17-12.97,0-2.95-.88-5.51-3.24-7.67-1.87-1.77-4.42-2.95-7.86-4.52l-5.9-2.75c-2.56-1.18-5.8-2.55-8.75-5.41-2.85-2.75-4.52-5.8-4.52-10.71,0-10.12,7.76-16.91,18.38-16.91,4.03,0,7.27.79,10.52,2.95,2.65,1.77,4.91,4.42,6.39,7.27l-5.8,3.83Z"/>
        <path class="cls-1" d="M786.57,430.03v58.68h-7.27v-58.68h-15.92v-6.88h39.12v6.88h-15.92Z"/>
        <path class="cls-1" d="M840.38,470.23h-27.92l-7.86,18.48h-8.06l30.18-68.71,29.39,68.71h-8.06l-7.67-18.48ZM837.53,463.35l-11.01-26.24-11.21,26.24h22.21Z"/>
        <path class="cls-1" d="M866.66,423.15h13.37c6.58,0,15.92.69,24.18,7.67,5.99,5.01,11.21,13.37,11.21,25.16,0,13.76-6.78,21.13-11.5,25.16-5.99,5.11-12.29,7.57-23.98,7.57h-13.27v-65.56ZM873.93,481.83h6.39c5.21,0,12.39-.59,18.77-5.9,4.91-4.13,8.85-10.62,8.85-19.95,0-15.73-11.01-25.95-27.62-25.95h-6.39v51.8Z"/>
        <path class="cls-1" d="M920.55,455.98c0-19.56,15.24-33.91,34.11-33.91s34.11,14.35,34.11,33.91-15.14,33.91-34.11,33.91-34.11-14.45-34.11-33.91ZM928.02,455.98c0,15.04,11.89,27.03,26.64,27.03s26.64-11.99,26.64-27.03-11.89-27.03-26.64-27.03-26.64,11.99-26.64,27.03Z"/>
        <path class="cls-1" d="M1025.66,423.15h13.37c6.58,0,15.92.69,24.18,7.67,5.99,5.01,11.21,13.37,11.21,25.16,0,13.76-6.78,21.13-11.5,25.16-5.99,5.11-12.29,7.57-23.98,7.57h-13.27v-65.56ZM1032.93,481.83h6.39c5.21,0,12.39-.59,18.77-5.9,4.91-4.13,8.85-10.62,8.85-19.95,0-15.73-11.01-25.95-27.62-25.95h-6.39v51.8Z"/>
        <path class="cls-1" d="M1118.1,430.03h-26.74v19.46h25.95v6.88h-25.95v25.46h26.74v6.88h-34.01v-65.56h34.01v6.88Z"/>
        <path class="cls-1" d="M1186.28,436.12c-.88-1.77-2.36-3.74-3.83-4.91-1.28-.98-3.64-2.26-7.37-2.26-6.49,0-11.01,4.03-11.01,10.12,0,2.55.69,4.03,2.46,5.7,1.97,1.97,4.42,3.05,6.88,4.13l6.29,2.75c3.83,1.67,7.37,3.44,10.12,6.19,3.34,3.34,4.72,7.18,4.72,11.89,0,12.09-8.94,20.15-20.74,20.15-4.32,0-9.73-.88-14.25-5.31-3.24-3.15-5.21-7.67-6.09-11.6l7.08-1.97c.49,3.44,2.07,6.39,3.93,8.35,2.85,2.85,6.09,3.64,9.44,3.64,8.94,0,13.17-6.39,13.17-12.97,0-2.95-.88-5.51-3.24-7.67-1.87-1.77-4.42-2.95-7.86-4.52l-5.9-2.75c-2.56-1.18-5.8-2.55-8.75-5.41-2.85-2.75-4.52-5.8-4.52-10.71,0-10.12,7.76-16.91,18.38-16.91,4.03,0,7.27.79,10.52,2.95,2.65,1.77,4.91,4.42,6.39,7.27l-5.8,3.83Z"/>
        <path class="cls-1" d="M1242.39,470.23h-27.92l-7.86,18.48h-8.06l30.17-68.71,29.39,68.71h-8.06l-7.67-18.48ZM1243.57,409.39c-.59,1.57-1.48,2.95-2.56,4.03-2.36,2.46-5.01,3.05-6.88,3.05-2.36,0-4.03-.88-6.58-2.16-2.46-1.18-4.03-1.97-5.51-1.97-1.08,0-2.06.39-2.95,1.28-.69.79-1.38,1.87-1.67,3.05l-4.33-3.54c.69-1.87,1.67-3.24,2.95-4.42,1.57-1.57,3.44-2.65,6.19-2.65s4.91,1.18,6.68,2.06c1.87.98,3.83,2.06,5.5,2.06,1.08,0,2.16-.39,3.15-1.38.69-.69,1.38-1.77,1.77-2.85l4.23,3.44ZM1239.54,463.35l-11.01-26.24-11.21,26.24h22.21Z"/>
        <path class="cls-1" d="M1263.17,455.98c0-19.56,15.24-33.91,34.11-33.91s34.11,14.35,34.11,33.91-15.14,33.91-34.11,33.91-34.11-14.45-34.11-33.91ZM1270.64,455.98c0,15.04,11.89,27.03,26.64,27.03s26.64-11.99,26.64-27.03-11.89-27.03-26.64-27.03-26.64,11.99-26.64,27.03Z"/>
        <path class="cls-1" d="M1380.17,423.15c6.58,0,12.09.79,16.51,4.62,4.82,4.13,6,9.93,6,14.05,0,9.24-5.8,18.38-20.74,18.38h-6.39v28.5h-7.27v-65.56h11.89ZM1375.55,453.32h6c8.65,0,13.86-4.32,13.86-11.89,0-10.42-9.73-11.4-14.45-11.4h-5.41v23.29Z"/>
        <path class="cls-1" d="M1442.47,470.23h-27.92l-7.86,18.48h-8.06l30.17-68.71,29.39,68.71h-8.06l-7.67-18.48ZM1439.62,463.35l-11.01-26.24-11.21,26.24h22.21Z"/>
        <path class="cls-1" d="M1474.02,463.35c0,5.51,0,11.5,5.21,15.92,2.65,2.26,7.18,3.74,10.81,3.74s8.16-1.48,10.81-3.74c5.21-4.42,5.21-10.42,5.21-15.92v-40.2h7.27v42.17c0,5.5-.59,10.81-4.13,15.73-3.93,5.41-10.81,8.85-19.17,8.85s-15.24-3.44-19.17-8.85c-3.54-4.91-4.13-10.22-4.13-15.73v-42.17h7.27v40.2Z"/>
        <path class="cls-1" d="M1535.83,423.15v58.68h18.08v6.88h-25.36v-65.56h7.27Z"/>
        <path class="cls-1" d="M1556.18,455.98c0-19.56,15.24-33.91,34.11-33.91s34.11,14.35,34.11,33.91-15.14,33.91-34.11,33.91-34.11-14.45-34.11-33.91ZM1563.65,455.98c0,15.04,11.89,27.03,26.64,27.03s26.64-11.99,26.64-27.03-11.89-27.03-26.64-27.03-26.64,11.99-26.64,27.03Z"/>
      </g>
    </g>
    <rect class="cls-1" width="11.71" height="401.03"/>
  </g>
</svg>