<?xml version="1.0" encoding="UTF-8"?>
<svg id="Camada_2" data-name="Camada 2" xmlns="http://www.w3.org/2000/svg" viewBox="0 0 1440.15 169.91">
  <defs>
    <style>
      .cls-1 {
        fill: #fff;
      }

      .cls-2 {
        fill: #212125;
      }

      .cls-3 {
        fill: #b1b4b5;
      }
    </style>
  </defs>
  <g id="Camada_1-2" data-name="Camada 1">
    <rect class="cls-2" x="259.87" y="34.31" width="2.2" height="39.29"/>
    <rect class="cls-2" x="209.27" y=".57" width=".11" height="106.4"/>
    <path class="cls-2" d="M302.46,53.95c0,5.43-2.2,10.34-5.76,13.89-3.55,3.56-8.46,5.76-13.89,5.76h-22.94v-39.29h22.94c10.85,0,19.65,8.79,19.65,19.64Z"/>
    <path class="cls-1" d="M302.46,53.95c0,5.43-2.2,10.34-5.76,13.89-3.55,3.56-8.46,5.76-13.89,5.76h-22.94v-39.29h22.94c10.85,0,19.65,8.79,19.65,19.64Z"/>
    <path class="cls-3" d="M366.74,112.94l48.14-3.02c1.04,7.82,3.16,13.78,6.37,17.87,5.21,6.63,12.66,9.94,22.34,9.94,7.22,0,12.79-1.69,16.7-5.08,3.91-3.39,5.86-7.32,5.86-11.78s-1.86-8.04-5.58-11.39c-3.73-3.35-12.36-6.52-25.92-9.5-22.19-4.99-38.02-11.62-47.47-19.88-9.53-8.27-14.3-18.8-14.3-31.61,0-8.41,2.44-16.36,7.32-23.85,4.88-7.48,12.21-13.37,22.01-17.65,9.79-4.28,23.21-6.42,40.27-6.42,20.92,0,36.88,3.89,47.86,11.67,10.98,7.78,17.52,20.16,19.6,37.14l-47.7,2.79c-1.27-7.37-3.93-12.73-7.99-16.09-4.06-3.35-9.66-5.03-16.81-5.03-5.88,0-10.31,1.25-13.29,3.74-2.98,2.5-4.47,5.53-4.47,9.1,0,2.61,1.23,4.95,3.69,7.04,2.38,2.16,8.04,4.17,16.98,6.03,22.12,4.77,37.96,9.59,47.53,14.46,9.57,4.88,16.53,10.93,20.89,18.15,4.36,7.22,6.53,15.3,6.53,24.24,0,10.5-2.9,20.18-8.71,29.04-5.81,8.86-13.93,15.58-24.35,20.16-10.43,4.58-23.57,6.87-39.43,6.87-27.85,0-47.14-5.36-57.86-16.08-10.72-10.72-16.79-24.35-18.21-40.88Z"/>
    <path class="cls-3" d="M533.94.57h86.98c18.94,0,33.13,4.5,42.57,13.51,9.43,9.01,14.15,21.83,14.15,38.47s-5.14,30.46-15.42,40.08-25.97,14.44-47.07,14.44h-28.65v62.84h-52.56V.57ZM586.49,72.77h12.82c10.09,0,17.17-1.75,21.25-5.26s6.12-7.99,6.12-13.46-1.77-9.82-5.31-13.51-10.2-5.54-19.98-5.54h-14.9v37.77Z"/>
    <g>
      <path class="cls-3" d="M0,0h68.64l26.47,102.78L121.4,0h68.6v168.91h-42.75V40.1l-32.94,128.82h-38.69L42.75,40.1v128.82H0V0Z"/>
      <path class="cls-3" d="M209.27.57h86.47c18.83,0,32.94,4.48,42.31,13.44,9.38,8.96,14.07,21.7,14.07,38.24s-5.11,30.28-15.33,39.85c-10.22,9.57-25.82,14.35-46.79,14.35h-28.48v62.47h-52.25V.57ZM261.52,72.34h12.75c10.03,0,17.07-1.74,21.13-5.22,4.06-3.48,6.09-7.94,6.09-13.38s-1.76-9.76-5.28-13.44c-3.52-3.67-10.14-5.51-19.87-5.51h-14.81v37.55Z"/>
    </g>
    <rect class="cls-3" x="718.49" y=".57" width="2.96" height="169.34"/>
    <g>
      <g>
        <path class="cls-3" d="M762.45,77.53V29.35h9.6l11.4,34.11c1.05,3.18,1.82,5.55,2.3,7.13.55-1.75,1.4-4.33,2.56-7.72l11.54-33.52h8.58v48.18h-6.15v-40.33l-14,40.33h-5.75l-13.93-41.02v41.02h-6.15Z"/>
        <path class="cls-3" d="M818.72,77.2V29.27h6.38v47.93h-6.38Z"/>
        <path class="cls-3" d="M884.98,77.2V29.27h6.38v47.93h-6.38Z"/>
        <path class="cls-3" d="M836.2,77.2V29.35h6.5l25.14,37.57V29.35h6.07v47.85h-6.5l-25.14-37.6v37.6h-6.07Z"/>
        <path class="cls-3" d="M898.87,61.74l5.94-.52c.28,2.38.93,4.33,1.96,5.85s2.62,2.76,4.78,3.7c2.16.94,4.59,1.41,7.3,1.41,2.4,0,4.52-.36,6.36-1.07s3.21-1.69,4.1-2.94c.9-1.24,1.35-2.6,1.35-4.07s-.43-2.79-1.3-3.91c-.87-1.11-2.29-2.05-4.28-2.81-1.28-.5-4.1-1.27-8.46-2.32s-7.43-2.04-9.18-2.97c-2.27-1.19-3.96-2.66-5.07-4.43-1.11-1.76-1.67-3.73-1.67-5.92,0-2.4.68-4.64,2.04-6.73,1.36-2.09,3.35-3.67,5.97-4.75,2.62-1.08,5.52-1.62,8.73-1.62,3.52,0,6.63.57,9.32,1.7,2.69,1.14,4.76,2.81,6.21,5.01,1.45,2.21,2.23,4.7,2.33,7.49l-6.03.45c-.32-3.01-1.42-5.28-3.29-6.81-1.87-1.53-4.63-2.3-8.29-2.3s-6.58.7-8.32,2.09c-1.74,1.39-2.61,3.08-2.61,5.04,0,1.71.62,3.11,1.85,4.22,1.21,1.1,4.37,2.23,9.49,3.39,5.11,1.16,8.62,2.17,10.53,3.03,2.77,1.28,4.81,2.89,6.13,4.85s1.98,4.21,1.98,6.76-.72,4.91-2.17,7.15-3.53,3.98-6.24,5.22-5.77,1.87-9.16,1.87c-4.3,0-7.91-.63-10.82-1.88-2.91-1.25-5.19-3.14-6.84-5.66-1.65-2.52-2.52-5.37-2.61-8.55Z"/>
        <path class="cls-3" d="M955.67,77.2v-42.27h-15.79v-5.66h37.99v5.66h-15.86v42.27h-6.34Z"/>
        <path class="cls-3" d="M983.51,77.2V29.51h34.48v5.63h-28.17v14.61h26.38v5.6h-26.38v16.23h29.28v5.63h-35.59ZM996.52,26.59l4.33-9.11h7.68l-7.16,9.11h-4.85Z"/>
        <path class="cls-3" d="M1026.41,77.11V29.27h21.21c4.26,0,7.5.43,9.72,1.29,2.22.86,3.99,2.38,5.32,4.55,1.33,2.18,1.99,4.58,1.99,7.21,0,3.39-1.1,6.25-3.3,8.58-2.2,2.33-5.59,3.81-10.18,4.44,1.67.81,2.95,1.6,3.82,2.38,1.85,1.7,3.6,3.82,5.25,6.36l8.32,13.02h-7.96l-6.33-9.95c-1.85-2.87-3.37-5.07-4.57-6.59-1.2-1.52-2.27-2.59-3.22-3.2-.95-.61-1.91-1.03-2.89-1.27-.72-.15-1.89-.23-3.52-.23h-7.34v21.24h-6.33ZM1032.74,50.39h13.61c2.89,0,5.16-.3,6.79-.9,1.63-.6,2.87-1.56,3.72-2.87.85-1.32,1.27-2.75,1.27-4.29,0-2.26-.82-4.12-2.46-5.58-1.64-1.46-4.24-2.19-7.78-2.19h-15.14v15.83Z"/>
        <path class="cls-3" d="M1074.8,77.02V28.26h6.45v48.76h-6.45Z"/>
        <path class="cls-3" d="M1089.67,53.77c0-7.92,2.13-14.12,6.38-18.6,4.25-4.48,9.74-6.72,16.47-6.72,4.4,0,8.38,1.05,11.91,3.16s6.23,5.04,8.09,8.8c1.86,3.77,2.78,8.04,2.78,12.81s-.98,9.17-2.93,12.99c-1.95,3.82-4.72,6.71-8.3,8.68-3.58,1.96-7.44,2.95-11.59,2.95-4.49,0-8.51-1.08-12.04-3.26-3.54-2.17-6.22-5.13-8.04-8.89-1.82-3.75-2.73-7.73-2.73-11.91ZM1096.18,53.87c0,5.75,1.55,10.28,4.64,13.59,3.09,3.31,6.97,4.96,11.64,4.96s8.66-1.67,11.73-5.01c3.07-3.34,4.61-8.08,4.61-14.22,0-3.88-.66-7.28-1.97-10.17-1.31-2.9-3.23-5.14-5.76-6.74-2.53-1.59-5.37-2.39-8.51-2.39-4.47,0-8.32,1.54-11.54,4.61-3.22,3.07-4.83,8.2-4.83,15.38Z"/>
        <path class="cls-3" d="M1394.51,53.77c0-7.92,2.13-14.12,6.38-18.6,4.25-4.48,9.74-6.72,16.47-6.72,4.4,0,8.38,1.05,11.91,3.16s6.23,5.04,8.09,8.8c1.86,3.77,2.78,8.04,2.78,12.81s-.98,9.17-2.93,12.99c-1.95,3.82-4.72,6.71-8.3,8.68-3.58,1.96-7.44,2.95-11.59,2.95-4.49,0-8.51-1.08-12.04-3.26-3.54-2.17-6.22-5.13-8.04-8.89-1.82-3.75-2.73-7.73-2.73-11.91ZM1401.02,53.87c0,5.75,1.55,10.28,4.64,13.59,3.09,3.31,6.97,4.96,11.64,4.96s8.66-1.67,11.73-5.01c3.07-3.34,4.61-8.08,4.61-14.22,0-3.88-.66-7.28-1.97-10.17-1.31-2.9-3.23-5.14-5.76-6.74-2.53-1.59-5.37-2.39-8.51-2.39-4.47,0-8.32,1.54-11.54,4.61-3.22,3.07-4.83,8.2-4.83,15.38Z"/>
        <path class="cls-3" d="M1161.77,77.02V29.27h18.01c3.17,0,5.59.15,7.26.46,2.35.39,4.31,1.14,5.9,2.23,1.59,1.1,2.86,2.63,3.83,4.61.97,1.98,1.45,4.15,1.45,6.51,0,4.06-1.29,7.5-3.88,10.31-2.58,2.81-7.25,4.22-14,4.22h-12.25v19.41h-6.32ZM1168.09,51.97h12.34c4.08,0,6.98-.76,8.7-2.28,1.72-1.52,2.57-3.66,2.57-6.42,0-2-.5-3.71-1.51-5.13-1.01-1.42-2.34-2.36-3.99-2.82-1.06-.28-3.03-.42-5.9-.42h-12.21v17.07Z"/>
        <path class="cls-3" d="M1235.92,29.48h6.29v27.47c0,4.78-.54,8.57-1.62,11.38-1.08,2.81-3.03,5.1-5.85,6.86-2.82,1.76-6.52,2.64-11.11,2.64s-8.1-.77-10.93-2.3c-2.83-1.54-4.85-3.76-6.06-6.66s-1.82-6.88-1.82-11.92v-27.47h6.29v27.43c0,4.13.38,7.17,1.15,9.13.77,1.96,2.09,3.46,3.96,4.52,1.87,1.06,4.16,1.59,6.86,1.59,4.63,0,7.92-1.05,9.89-3.15s2.95-6.13,2.95-12.1v-27.43ZM1219.51,26.56l4.31-9.08h7.65l-7.13,9.08h-4.83Z"/>
        <path class="cls-3" d="M1251.85,77.02V29.27h17.91c3.65,0,6.57.48,8.78,1.45s3.93,2.45,5.18,4.46c1.25,2.01,1.87,4.11,1.87,6.3,0,2.04-.55,3.96-1.66,5.76s-2.78,3.26-5.02,4.36c2.89.85,5.11,2.29,6.66,4.33,1.55,2.04,2.33,4.45,2.33,7.23,0,2.24-.47,4.32-1.42,6.24-.94,1.92-2.11,3.4-3.5,4.45-1.39,1.04-3.13,1.83-5.23,2.36-2.09.53-4.66.8-7.7.8h-18.21ZM1258.17,49.34h10.32c2.8,0,4.81-.18,6.03-.55,1.61-.48,2.82-1.27,3.63-2.38.81-1.11,1.22-2.5,1.22-4.17,0-1.58-.38-2.98-1.14-4.18s-1.85-2.03-3.26-2.48-3.83-.67-7.26-.67h-9.54v14.43ZM1258.17,71.39h11.89c2.04,0,3.47-.08,4.3-.23,1.45-.26,2.67-.7,3.65-1.3.98-.61,1.78-1.49,2.41-2.65.63-1.16.94-2.5.94-4.02,0-1.78-.46-3.33-1.37-4.64-.91-1.31-2.18-2.24-3.79-2.77-1.62-.53-3.95-.8-6.99-.8h-11.04v16.42Z"/>
        <path class="cls-3" d="M1296.05,77.02V29.27h6.32v42.11h23.51v5.63h-29.83Z"/>
        <path class="cls-3" d="M1332.62,77.02V28.48h6.42v48.54h-6.42Z"/>
        <path class="cls-3" d="M1383.84,60.28l6.32,1.6c-1.32,5.19-3.71,9.14-7.15,11.86-3.44,2.72-7.64,4.09-12.61,4.09s-9.33-1.05-12.55-3.14c-3.22-2.09-5.68-5.13-7.36-9.1-1.68-3.97-2.52-8.24-2.52-12.79,0-4.97.95-9.3,2.85-13,1.9-3.7,4.6-6.51,8.11-8.43,3.5-1.92,7.36-2.88,11.57-2.88,4.77,0,8.79,1.22,12.04,3.65,3.25,2.43,5.52,5.85,6.8,10.25l-6.22,1.46c-1.11-3.47-2.71-6-4.82-7.58-2.1-1.58-4.75-2.38-7.94-2.38-3.67,0-6.73.88-9.2,2.64s-4.19,4.12-5.19,7.08c-1,2.96-1.5,6.02-1.5,9.16,0,4.06.59,7.6,1.77,10.63,1.18,3.03,3.02,5.29,5.52,6.79,2.5,1.5,5.2,2.25,8.1,2.25,3.54,0,6.53-1.02,8.98-3.06,2.45-2.04,4.11-5.07,4.98-9.08Z"/>
      </g>
      <path class="cls-3" d="M762.45,140.61v-37.13h12.79c2.89,0,5.09.18,6.61.53,2.13.49,3.94,1.38,5.45,2.66,1.96,1.66,3.42,3.77,4.39,6.34.97,2.58,1.46,5.52,1.46,8.83,0,2.82-.33,5.32-.99,7.5s-1.5,3.98-2.53,5.41-2.16,2.55-3.38,3.37c-1.22.82-2.7,1.44-4.43,1.86-1.73.42-3.72.63-5.96.63h-13.4ZM767.37,136.23h7.93c2.45,0,4.37-.23,5.76-.68,1.39-.46,2.5-1.1,3.33-1.92,1.17-1.16,2.07-2.73,2.72-4.7.65-1.97.97-4.35.97-7.16,0-3.88-.64-6.87-1.91-8.95s-2.82-3.48-4.65-4.19c-1.32-.51-3.44-.76-6.36-.76h-7.8v28.37Z"/>
      <path class="cls-3" d="M798.42,122.53c0-6.16,1.65-10.99,4.96-14.48s7.58-5.23,12.82-5.23c3.43,0,6.52.82,9.27,2.46s4.85,3.92,6.29,6.85c1.44,2.93,2.17,6.25,2.17,9.97s-.76,7.13-2.28,10.11c-1.52,2.97-3.67,5.22-6.46,6.75-2.79,1.53-5.79,2.29-9.02,2.29-3.5,0-6.62-.84-9.37-2.53-2.75-1.69-4.84-3.99-6.26-6.92s-2.13-6.01-2.13-9.27ZM803.49,122.61c0,4.47,1.2,8,3.61,10.57,2.41,2.58,5.42,3.86,9.05,3.86s6.74-1.3,9.13-3.9c2.39-2.6,3.58-6.29,3.58-11.07,0-3.02-.51-5.66-1.53-7.92-1.02-2.25-2.52-4-4.48-5.24-1.97-1.24-4.18-1.86-6.62-1.86-3.48,0-6.47,1.2-8.98,3.58-2.51,2.39-3.76,6.38-3.76,11.97Z"/>
      <path class="cls-3" d="M1016.65,122.53c0-6.16,1.65-10.99,4.96-14.48s7.58-5.23,12.82-5.23c3.43,0,6.52.82,9.27,2.46s4.85,3.92,6.29,6.85c1.44,2.93,2.17,6.25,2.17,9.97s-.76,7.13-2.28,10.11c-1.52,2.97-3.67,5.22-6.46,6.75-2.79,1.53-5.79,2.29-9.02,2.29-3.5,0-6.62-.84-9.37-2.53-2.75-1.69-4.84-3.99-6.26-6.92s-2.13-6.01-2.13-9.27ZM1021.71,122.61c0,4.47,1.2,8,3.61,10.57,2.41,2.58,5.42,3.86,9.05,3.86s6.74-1.3,9.13-3.9c2.39-2.6,3.58-6.29,3.58-11.07,0-3.02-.51-5.66-1.53-7.92-1.02-2.25-2.52-4-4.48-5.24-1.97-1.24-4.18-1.86-6.62-1.86-3.48,0-6.47,1.2-8.98,3.58-2.51,2.39-3.76,6.38-3.76,11.97Z"/>
      <path class="cls-3" d="M853.99,140.61v-37.13h26.85v4.38h-21.94v11.37h20.54v4.36h-20.54v12.64h22.8v4.38h-27.71Z"/>
      <path class="cls-3" d="M884.99,128.68l4.64-.41c.22,1.86.73,3.38,1.53,4.58s2.05,2.15,3.74,2.89c1.69.73,3.59,1.1,5.7,1.1,1.88,0,3.53-.28,4.97-.84,1.44-.56,2.51-1.32,3.21-2.29.7-.97,1.05-2.03,1.05-3.18s-.34-2.18-1.01-3.05c-.68-.87-1.79-1.6-3.35-2.19-1-.39-3.2-.99-6.61-1.81-3.41-.82-5.8-1.59-7.17-2.32-1.77-.93-3.1-2.08-3.97-3.46-.87-1.38-1.31-2.92-1.31-4.63,0-1.88.53-3.63,1.6-5.26,1.06-1.63,2.62-2.87,4.66-3.71,2.05-.84,4.32-1.27,6.82-1.27,2.75,0,5.18.44,7.29,1.33,2.1.89,3.72,2.19,4.85,3.92,1.13,1.72,1.74,3.67,1.82,5.85l-4.71.36c-.25-2.35-1.11-4.12-2.57-5.32-1.46-1.2-3.62-1.8-6.48-1.8s-5.14.54-6.5,1.63c-1.36,1.09-2.04,2.4-2.04,3.94,0,1.33.48,2.43,1.44,3.3.95.86,3.42,1.74,7.41,2.65,4,.9,6.74,1.69,8.22,2.37,2.16,1,3.76,2.26,4.79,3.79s1.55,3.29,1.55,5.28-.57,3.84-1.7,5.59-2.76,3.11-4.88,4.08c-2.12.97-4.51,1.46-7.16,1.46-3.36,0-6.18-.49-8.45-1.47-2.27-.98-4.06-2.45-5.35-4.42-1.29-1.97-1.97-4.19-2.04-6.68Z"/>
      <path class="cls-3" d="M929.69,140.61v-32.75h-12.23v-4.38h29.43v4.38h-12.28v32.75h-4.91Z"/>
      <path class="cls-3" d="M943.39,140.61l14.26-37.13h5.29l15.2,37.13h-5.6l-4.33-11.25h-15.53l-4.08,11.25h-5.22ZM954.11,125.37h12.59l-3.87-10.28c-1.18-3.12-2.06-5.69-2.63-7.7-.47,2.38-1.14,4.75-2,7.09l-4.08,10.89Z"/>
      <path class="cls-3" d="M981.43,140.61v-36.83h12.69c2.86,0,5.05.18,6.56.53,2.11.49,3.91,1.37,5.4,2.64,1.94,1.64,3.4,3.74,4.36,6.29.96,2.55,1.44,5.47,1.44,8.76,0,2.8-.33,5.28-.98,7.44-.65,2.16-1.49,3.95-2.51,5.36s-2.14,2.53-3.35,3.34c-1.21.81-2.68,1.43-4.4,1.85-1.72.42-3.69.63-5.92.63h-13.29ZM986.3,136.27h7.86c2.43,0,4.33-.23,5.72-.68,1.38-.45,2.48-1.09,3.3-1.91,1.16-1.16,2.06-2.71,2.7-4.66.64-1.95.97-4.32.97-7.1,0-3.85-.63-6.81-1.9-8.88s-2.8-3.45-4.61-4.16c-1.31-.5-3.41-.75-6.31-.75h-7.74v28.14Z"/>
      <path class="cls-3" d="M1073.01,140.61v-36.83h12.69c2.86,0,5.05.18,6.56.53,2.11.49,3.91,1.37,5.4,2.64,1.94,1.64,3.4,3.74,4.36,6.29.96,2.55,1.44,5.47,1.44,8.76,0,2.8-.33,5.28-.98,7.44s-1.49,3.95-2.51,5.36-2.14,2.53-3.35,3.34c-1.21.81-2.68,1.43-4.4,1.85-1.72.42-3.69.63-5.92.63h-13.29ZM1077.89,136.27h7.86c2.43,0,4.33-.23,5.72-.68,1.38-.45,2.48-1.09,3.3-1.91,1.16-1.16,2.06-2.71,2.7-4.66.64-1.95.97-4.32.97-7.1,0-3.85-.63-6.81-1.9-8.88s-2.8-3.45-4.61-4.16c-1.31-.5-3.41-.75-6.31-.75h-7.74v28.14Z"/>
      <path class="cls-3" d="M1109.89,140.61v-36.83h26.63v4.35h-21.76v11.28h20.38v4.32h-20.38v12.54h22.61v4.35h-27.49Z"/>
      <path class="cls-3" d="M1156.45,129.2l4.71-.41c.22,1.89.74,3.44,1.56,4.64s2.08,2.19,3.8,2.93c1.72.75,3.64,1.12,5.79,1.12,1.9,0,3.58-.28,5.04-.85s2.54-1.34,3.26-2.33c.71-.99,1.07-2.06,1.07-3.23s-.34-2.22-1.03-3.1c-.69-.88-1.82-1.63-3.4-2.23-1.01-.39-3.25-1.01-6.72-1.84s-5.89-1.62-7.28-2.35c-1.8-.94-3.14-2.11-4.03-3.51-.88-1.4-1.33-2.96-1.33-4.7,0-1.9.54-3.68,1.62-5.34,1.08-1.66,2.66-2.91,4.73-3.77,2.08-.86,4.38-1.29,6.92-1.29,2.8,0,5.26.45,7.4,1.35,2.14.9,3.78,2.23,4.93,3.98,1.15,1.75,1.77,3.73,1.85,5.94l-4.79.36c-.26-2.38-1.13-4.19-2.61-5.4-1.48-1.22-3.68-1.83-6.57-1.83s-5.22.55-6.6,1.66c-1.38,1.11-2.07,2.44-2.07,4,0,1.36.49,2.47,1.47,3.35.96.87,3.47,1.77,7.53,2.69,4.06.92,6.84,1.72,8.35,2.41,2.2,1.01,3.82,2.29,4.86,3.85s1.57,3.34,1.57,5.36-.58,3.9-1.72,5.67-2.8,3.16-4.95,4.14c-2.15.99-4.58,1.48-7.27,1.48-3.41,0-6.27-.5-8.58-1.49-2.31-.99-4.12-2.49-5.43-4.49-1.31-2-2-4.26-2.07-6.78Z"/>
      <path class="cls-3" d="M1187.48,141.97l14.6-38.01h5.42l15.56,38.01h-5.73l-4.43-11.51h-15.89l-4.17,11.51h-5.34ZM1196.6,101.63c-.02-1.8.47-3.23,1.48-4.3.99-1.07,2.25-1.61,3.79-1.61,1.07,0,2.53.47,4.38,1.4,1.02.52,1.83.78,2.44.78.55,0,.98-.15,1.27-.45.29-.3.5-.9.62-1.8h3.37c-.05,1.97-.55,3.45-1.49,4.43-.94.99-2.14,1.48-3.59,1.48-1.09,0-2.52-.48-4.3-1.45-1.16-.62-2.01-.93-2.54-.93-.59,0-1.06.21-1.43.62-.38.42-.56,1.03-.54,1.84h-3.45ZM1198.44,126.36h12.89l-3.97-10.53c-1.21-3.2-2.11-5.82-2.7-7.88-.48,2.44-1.17,4.86-2.05,7.26l-4.17,11.15Z"/>
      <path class="cls-3" d="M1223.69,123.02c0-6.11,1.64-10.9,4.93-14.36,3.28-3.46,7.52-5.19,12.72-5.19,3.4,0,6.47.81,9.2,2.44s4.81,3.89,6.24,6.8c1.43,2.91,2.15,6.2,2.15,9.89s-.75,7.08-2.26,10.03c-1.51,2.95-3.64,5.18-6.41,6.7-2.76,1.52-5.75,2.27-8.95,2.27-3.47,0-6.57-.84-9.3-2.51-2.73-1.68-4.8-3.96-6.21-6.86s-2.11-5.96-2.11-9.2ZM1228.72,123.1c0,4.44,1.19,7.94,3.58,10.49,2.39,2.56,5.38,3.83,8.98,3.83s6.69-1.29,9.06-3.87c2.37-2.58,3.56-6.24,3.56-10.98,0-3-.51-5.62-1.52-7.85-1.01-2.24-2.5-3.97-4.45-5.2-1.95-1.23-4.14-1.85-6.57-1.85-3.45,0-6.42,1.19-8.91,3.56-2.49,2.37-3.73,6.33-3.73,11.87Z"/>
      <path class="cls-3" d="M1404.92,123.02c0-6.11,1.64-10.9,4.93-14.36,3.28-3.46,7.52-5.19,12.72-5.19,3.4,0,6.47.81,9.2,2.44s4.81,3.89,6.24,6.8c1.43,2.91,2.15,6.2,2.15,9.89s-.75,7.08-2.26,10.03c-1.51,2.95-3.64,5.18-6.41,6.7-2.76,1.52-5.75,2.27-8.95,2.27-3.47,0-6.57-.84-9.3-2.51-2.73-1.68-4.8-3.96-6.21-6.86s-2.11-5.96-2.11-9.2ZM1409.94,123.1c0,4.44,1.19,7.94,3.58,10.49,2.39,2.56,5.38,3.83,8.98,3.83s6.69-1.29,9.06-3.87c2.37-2.58,3.56-6.24,3.56-10.98,0-3-.51-5.62-1.52-7.85-1.01-2.24-2.5-3.97-4.45-5.2-1.95-1.23-4.14-1.85-6.57-1.85-3.45,0-6.42,1.19-8.91,3.56-2.49,2.37-3.73,6.33-3.73,11.87Z"/>
      <path class="cls-3" d="M1279.04,140.98v-36.89h13.92c2.45,0,4.32.12,5.61.35,1.81.3,3.33.88,4.55,1.72,1.22.85,2.21,2.03,2.96,3.56.75,1.53,1.12,3.2,1.12,5.03,0,3.14-1,5.79-3,7.96-2,2.17-5.6,3.26-10.82,3.26h-9.46v15h-4.88ZM1283.92,121.63h9.54c3.15,0,5.39-.59,6.72-1.76,1.33-1.17,1.99-2.83,1.99-4.96,0-1.54-.39-2.86-1.17-3.96-.78-1.1-1.81-1.82-3.08-2.18-.82-.22-2.34-.33-4.55-.33h-9.44v13.19Z"/>
      <path class="cls-3" d="M1305.66,141.04l14.18-36.96h5.26l15.11,36.96h-5.57l-4.31-11.19h-15.44l-4.05,11.19h-5.19ZM1316.31,125.87h12.52l-3.85-10.24c-1.18-3.11-2.05-5.66-2.62-7.66-.47,2.37-1.13,4.72-1.99,7.06l-4.06,10.84Z"/>
      <path class="cls-3" d="M1366.86,104.09h4.91v21.45c0,3.73-.42,6.69-1.27,8.89-.85,2.2-2.37,3.98-4.57,5.36-2.2,1.38-5.09,2.06-8.67,2.06s-6.32-.6-8.53-1.8c-2.21-1.2-3.79-2.93-4.74-5.2s-1.42-5.37-1.42-9.31v-21.45h4.91v21.43c0,3.22.3,5.6.9,7.13.6,1.53,1.63,2.71,3.09,3.53,1.46.83,3.25,1.24,5.36,1.24,3.61,0,6.19-.82,7.72-2.46s2.3-4.79,2.3-9.45v-21.43Z"/>
      <path class="cls-3" d="M1379.85,140.71v-36.63h4.85v32.31h18.04v4.32h-22.89Z"/>
    </g>
  </g>
</svg>