<?xml version="1.0" encoding="UTF-8"?>
<svg id="Camada_2" data-name="Camada 2" xmlns="http://www.w3.org/2000/svg" xmlns:xlink="http://www.w3.org/1999/xlink" viewBox="0 0 1050.82 529.29">
  <defs>
    <style>
      .cls-1 {
        filter: url(#drop-shadow-2);
      }

      .cls-1, .cls-2, .cls-3, .cls-4, .cls-5, .cls-6, .cls-7, .cls-8, .cls-9, .cls-10, .cls-11, .cls-12, .cls-13, .cls-14, .cls-15, .cls-16, .cls-17, .cls-18, .cls-19, .cls-20, .cls-21, .cls-22, .cls-23, .cls-24, .cls-25, .cls-26, .cls-27, .cls-28, .cls-29, .cls-30, .cls-31, .cls-32, .cls-33, .cls-34 {
        fill: #aaacae;
      }

      .cls-1, .cls-35, .cls-17, .cls-27, .cls-30 {
        fill-rule: evenodd;
      }

      .cls-2 {
        filter: url(#drop-shadow-30);
      }

      .cls-2, .cls-3, .cls-4, .cls-5, .cls-6, .cls-7, .cls-9, .cls-10, .cls-11, .cls-12, .cls-13, .cls-14, .cls-15, .cls-16, .cls-18, .cls-19, .cls-20, .cls-21, .cls-22, .cls-23, .cls-24, .cls-25, .cls-26, .cls-28, .cls-29, .cls-33, .cls-34 {
        stroke: #fff;
        stroke-width: .5px;
      }

      .cls-3 {
        filter: url(#drop-shadow-8);
      }

      .cls-4 {
        filter: url(#drop-shadow-13);
      }

      .cls-5 {
        filter: url(#drop-shadow-12);
      }

      .cls-36, .cls-35, .cls-37 {
        fill: #fff;
      }

      .cls-6 {
        filter: url(#drop-shadow-23);
      }

      .cls-7 {
        filter: url(#drop-shadow-28);
      }

      .cls-8 {
        filter: url(#drop-shadow-3);
      }

      .cls-9 {
        filter: url(#drop-shadow-22);
      }

      .cls-10 {
        filter: url(#drop-shadow-9);
      }

      .cls-11 {
        filter: url(#drop-shadow-29);
      }

      .cls-12 {
        filter: url(#drop-shadow-19);
      }

      .cls-13 {
        filter: url(#drop-shadow-17);
      }

      .cls-14 {
        filter: url(#drop-shadow-10);
      }

      .cls-15 {
        filter: url(#drop-shadow-15);
      }

      .cls-16 {
        filter: url(#drop-shadow-32);
      }

      .cls-17 {
        filter: url(#drop-shadow-1);
      }

      .cls-18 {
        filter: url(#drop-shadow-7);
      }

      .cls-37 {
        stroke: #aaacae;
        stroke-width: .51px;
      }

      .cls-19 {
        filter: url(#drop-shadow-20);
      }

      .cls-20 {
        filter: url(#drop-shadow-27);
      }

      .cls-21 {
        filter: url(#drop-shadow-21);
      }

      .cls-22 {
        filter: url(#drop-shadow-14);
      }

      .cls-23 {
        filter: url(#drop-shadow-31);
      }

      .cls-24 {
        filter: url(#drop-shadow-26);
      }

      .cls-25 {
        filter: url(#drop-shadow-18);
      }

      .cls-26 {
        filter: url(#drop-shadow-25);
      }

      .cls-27 {
        filter: url(#drop-shadow-4);
      }

      .cls-29 {
        filter: url(#drop-shadow-11);
      }

      .cls-30 {
        filter: url(#drop-shadow-5);
      }

      .cls-32 {
        filter: url(#drop-shadow-6);
      }

      .cls-33 {
        filter: url(#drop-shadow-16);
      }

      .cls-34 {
        filter: url(#drop-shadow-24);
      }
    </style>
    <filter id="drop-shadow-1" x="242.62" y="100.06" width="50.37" height="47.91" filterUnits="userSpaceOnUse">
      <feOffset dx="2.7" dy="0"/>
      <feGaussianBlur result="blur" stdDeviation="2.86"/>
      <feFlood flood-color="#aaacae" flood-opacity=".38"/>
      <feComposite in2="blur" operator="in"/>
      <feComposite in="SourceGraphic"/>
    </filter>
    <filter id="drop-shadow-2" x="242.62" y="352.26" width="50.37" height="47.91" filterUnits="userSpaceOnUse">
      <feOffset dx="2.7" dy="0"/>
      <feGaussianBlur result="blur-2" stdDeviation="2.86"/>
      <feFlood flood-color="#aaacae" flood-opacity=".38"/>
      <feComposite in2="blur-2" operator="in"/>
      <feComposite in="SourceGraphic"/>
    </filter>
    <filter id="drop-shadow-3" x="257.47" y="169.2" width="108.08" height="161.27" filterUnits="userSpaceOnUse">
      <feOffset dx="2.7" dy="0"/>
      <feGaussianBlur result="blur-3" stdDeviation="2.86"/>
      <feFlood flood-color="#aaacae" flood-opacity=".38"/>
      <feComposite in2="blur-3" operator="in"/>
      <feComposite in="SourceGraphic"/>
    </filter>
    <filter id="drop-shadow-4" x="757.83" y="100.06" width="50.37" height="47.91" filterUnits="userSpaceOnUse">
      <feOffset dx="2.7" dy="0"/>
      <feGaussianBlur result="blur-4" stdDeviation="2.86"/>
      <feFlood flood-color="#aaacae" flood-opacity=".38"/>
      <feComposite in2="blur-4" operator="in"/>
      <feComposite in="SourceGraphic"/>
    </filter>
    <filter id="drop-shadow-5" x="757.83" y="352.26" width="50.37" height="47.91" filterUnits="userSpaceOnUse">
      <feOffset dx="2.7" dy="0"/>
      <feGaussianBlur result="blur-5" stdDeviation="2.86"/>
      <feFlood flood-color="#aaacae" flood-opacity=".38"/>
      <feComposite in2="blur-5" operator="in"/>
      <feComposite in="SourceGraphic"/>
    </filter>
    <filter id="drop-shadow-6" x="675.8" y="172.73" width="129.22" height="154.11" filterUnits="userSpaceOnUse">
      <feOffset dx="2.7" dy="0"/>
      <feGaussianBlur result="blur-6" stdDeviation="2.86"/>
      <feFlood flood-color="#aaacae" flood-opacity=".38"/>
      <feComposite in2="blur-6" operator="in"/>
      <feComposite in="SourceGraphic"/>
    </filter>
    <filter id="drop-shadow-7" x="453.93" y="350.94" width="18" height="23" filterUnits="userSpaceOnUse">
      <feOffset dx="0" dy="0"/>
      <feGaussianBlur result="blur-7" stdDeviation=".54"/>
      <feFlood flood-color="#aaacae" flood-opacity=".77"/>
      <feComposite in2="blur-7" operator="in"/>
      <feComposite in="SourceGraphic"/>
    </filter>
    <filter id="drop-shadow-8" x="458.93" y="350.94" width="18" height="23" filterUnits="userSpaceOnUse">
      <feOffset dx="0" dy="0"/>
      <feGaussianBlur result="blur-8" stdDeviation=".54"/>
      <feFlood flood-color="#aaacae" flood-opacity=".77"/>
      <feComposite in2="blur-8" operator="in"/>
      <feComposite in="SourceGraphic"/>
    </filter>
    <filter id="drop-shadow-9" x="450.93" y="350.94" width="17" height="23" filterUnits="userSpaceOnUse">
      <feOffset dx="0" dy="0"/>
      <feGaussianBlur result="blur-9" stdDeviation=".54"/>
      <feFlood flood-color="#aaacae" flood-opacity=".77"/>
      <feComposite in2="blur-9" operator="in"/>
      <feComposite in="SourceGraphic"/>
    </filter>
    <filter id="drop-shadow-10" x="450.93" y="351.94" width="6" height="8" filterUnits="userSpaceOnUse">
      <feOffset dx="0" dy="0"/>
      <feGaussianBlur result="blur-10" stdDeviation=".54"/>
      <feFlood flood-color="#aaacae" flood-opacity=".77"/>
      <feComposite in2="blur-10" operator="in"/>
      <feComposite in="SourceGraphic"/>
    </filter>
    <filter id="drop-shadow-11" x="462.93" y="350.94" width="19" height="23" filterUnits="userSpaceOnUse">
      <feOffset dx="0" dy="0"/>
      <feGaussianBlur result="blur-11" stdDeviation=".54"/>
      <feFlood flood-color="#aaacae" flood-opacity=".77"/>
      <feComposite in2="blur-11" operator="in"/>
      <feComposite in="SourceGraphic"/>
    </filter>
    <filter id="drop-shadow-12" x="450.93" y="350.94" width="12" height="21" filterUnits="userSpaceOnUse">
      <feOffset dx="0" dy="0"/>
      <feGaussianBlur result="blur-12" stdDeviation=".54"/>
      <feFlood flood-color="#aaacae" flood-opacity=".77"/>
      <feComposite in2="blur-12" operator="in"/>
      <feComposite in="SourceGraphic"/>
    </filter>
    <filter id="drop-shadow-13" x="491.93" y="350.94" width="16" height="23" filterUnits="userSpaceOnUse">
      <feOffset dx="0" dy="0"/>
      <feGaussianBlur result="blur-13" stdDeviation=".54"/>
      <feFlood flood-color="#aaacae" flood-opacity=".77"/>
      <feComposite in2="blur-13" operator="in"/>
      <feComposite in="SourceGraphic"/>
    </filter>
    <filter id="drop-shadow-14" x="486.93" y="350.94" width="18" height="23" filterUnits="userSpaceOnUse">
      <feOffset dx="0" dy="0"/>
      <feGaussianBlur result="blur-14" stdDeviation=".54"/>
      <feFlood flood-color="#aaacae" flood-opacity=".77"/>
      <feComposite in2="blur-14" operator="in"/>
      <feComposite in="SourceGraphic"/>
    </filter>
    <filter id="drop-shadow-15" x="467.93" y="350.94" width="19" height="23" filterUnits="userSpaceOnUse">
      <feOffset dx="0" dy="0"/>
      <feGaussianBlur result="blur-15" stdDeviation=".54"/>
      <feFlood flood-color="#aaacae" flood-opacity=".77"/>
      <feComposite in2="blur-15" operator="in"/>
      <feComposite in="SourceGraphic"/>
    </filter>
    <filter id="drop-shadow-16" x="496.93" y="354.94" width="11" height="19" filterUnits="userSpaceOnUse">
      <feOffset dx="0" dy="0"/>
      <feGaussianBlur result="blur-16" stdDeviation=".54"/>
      <feFlood flood-color="#aaacae" flood-opacity=".77"/>
      <feComposite in2="blur-16" operator="in"/>
      <feComposite in="SourceGraphic"/>
    </filter>
    <filter id="drop-shadow-17" x="481.93" y="350.94" width="19" height="23" filterUnits="userSpaceOnUse">
      <feOffset dx="0" dy="0"/>
      <feGaussianBlur result="blur-17" stdDeviation=".54"/>
      <feFlood flood-color="#aaacae" flood-opacity=".77"/>
      <feComposite in2="blur-17" operator="in"/>
      <feComposite in="SourceGraphic"/>
    </filter>
    <filter id="drop-shadow-18" x="472.93" y="350.94" width="18" height="23" filterUnits="userSpaceOnUse">
      <feOffset dx="0" dy="0"/>
      <feGaussianBlur result="blur-18" stdDeviation=".54"/>
      <feFlood flood-color="#aaacae" flood-opacity=".77"/>
      <feComposite in2="blur-18" operator="in"/>
      <feComposite in="SourceGraphic"/>
    </filter>
    <filter id="drop-shadow-19" x="477.93" y="350.94" width="18" height="23" filterUnits="userSpaceOnUse">
      <feOffset dx="0" dy="0"/>
      <feGaussianBlur result="blur-19" stdDeviation=".54"/>
      <feFlood flood-color="#aaacae" flood-opacity=".77"/>
      <feComposite in2="blur-19" operator="in"/>
      <feComposite in="SourceGraphic"/>
    </filter>
    <filter id="drop-shadow-20" x="546.93" y="350.94" width="19" height="23" filterUnits="userSpaceOnUse">
      <feOffset dx="0" dy="0"/>
      <feGaussianBlur result="blur-20" stdDeviation=".54"/>
      <feFlood flood-color="#aaacae" flood-opacity=".77"/>
      <feComposite in2="blur-20" operator="in"/>
      <feComposite in="SourceGraphic"/>
    </filter>
    <filter id="drop-shadow-21" x="551.93" y="350.94" width="18" height="23" filterUnits="userSpaceOnUse">
      <feOffset dx="0" dy="0"/>
      <feGaussianBlur result="blur-21" stdDeviation=".54"/>
      <feFlood flood-color="#aaacae" flood-opacity=".77"/>
      <feComposite in2="blur-21" operator="in"/>
      <feComposite in="SourceGraphic"/>
    </filter>
    <filter id="drop-shadow-22" x="543.93" y="350.94" width="17" height="23" filterUnits="userSpaceOnUse">
      <feOffset dx="0" dy="0"/>
      <feGaussianBlur result="blur-22" stdDeviation=".54"/>
      <feFlood flood-color="#aaacae" flood-opacity=".77"/>
      <feComposite in2="blur-22" operator="in"/>
      <feComposite in="SourceGraphic"/>
    </filter>
    <filter id="drop-shadow-23" x="543.93" y="351.94" width="7" height="8" filterUnits="userSpaceOnUse">
      <feOffset dx="0" dy="0"/>
      <feGaussianBlur result="blur-23" stdDeviation=".54"/>
      <feFlood flood-color="#aaacae" flood-opacity=".77"/>
      <feComposite in2="blur-23" operator="in"/>
      <feComposite in="SourceGraphic"/>
    </filter>
    <filter id="drop-shadow-24" x="556.93" y="350.94" width="18" height="23" filterUnits="userSpaceOnUse">
      <feOffset dx="0" dy="0"/>
      <feGaussianBlur result="blur-24" stdDeviation=".54"/>
      <feFlood flood-color="#aaacae" flood-opacity=".77"/>
      <feComposite in2="blur-24" operator="in"/>
      <feComposite in="SourceGraphic"/>
    </filter>
    <filter id="drop-shadow-25" x="543.93" y="350.94" width="12" height="21" filterUnits="userSpaceOnUse">
      <feOffset dx="0" dy="0"/>
      <feGaussianBlur result="blur-25" stdDeviation=".54"/>
      <feFlood flood-color="#aaacae" flood-opacity=".77"/>
      <feComposite in2="blur-25" operator="in"/>
      <feComposite in="SourceGraphic"/>
    </filter>
    <filter id="drop-shadow-26" x="584.93" y="350.94" width="17" height="23" filterUnits="userSpaceOnUse">
      <feOffset dx="0" dy="0"/>
      <feGaussianBlur result="blur-26" stdDeviation=".54"/>
      <feFlood flood-color="#aaacae" flood-opacity=".77"/>
      <feComposite in2="blur-26" operator="in"/>
      <feComposite in="SourceGraphic"/>
    </filter>
    <filter id="drop-shadow-27" x="580.93" y="350.94" width="18" height="23" filterUnits="userSpaceOnUse">
      <feOffset dx="0" dy="0"/>
      <feGaussianBlur result="blur-27" stdDeviation=".54"/>
      <feFlood flood-color="#aaacae" flood-opacity=".77"/>
      <feComposite in2="blur-27" operator="in"/>
      <feComposite in="SourceGraphic"/>
    </filter>
    <filter id="drop-shadow-28" x="561.93" y="350.94" width="18" height="23" filterUnits="userSpaceOnUse">
      <feOffset dx="0" dy="0"/>
      <feGaussianBlur result="blur-28" stdDeviation=".54"/>
      <feFlood flood-color="#aaacae" flood-opacity=".77"/>
      <feComposite in2="blur-28" operator="in"/>
      <feComposite in="SourceGraphic"/>
    </filter>
    <filter id="drop-shadow-29" x="589.93" y="354.94" width="12" height="19" filterUnits="userSpaceOnUse">
      <feOffset dx="0" dy="0"/>
      <feGaussianBlur result="blur-29" stdDeviation=".54"/>
      <feFlood flood-color="#aaacae" flood-opacity=".77"/>
      <feComposite in2="blur-29" operator="in"/>
      <feComposite in="SourceGraphic"/>
    </filter>
    <filter id="drop-shadow-30" x="575.93" y="350.94" width="18" height="23" filterUnits="userSpaceOnUse">
      <feOffset dx="0" dy="0"/>
      <feGaussianBlur result="blur-30" stdDeviation=".54"/>
      <feFlood flood-color="#aaacae" flood-opacity=".77"/>
      <feComposite in2="blur-30" operator="in"/>
      <feComposite in="SourceGraphic"/>
    </filter>
    <filter id="drop-shadow-31" x="565.93" y="350.94" width="19" height="23" filterUnits="userSpaceOnUse">
      <feOffset dx="0" dy="0"/>
      <feGaussianBlur result="blur-31" stdDeviation=".54"/>
      <feFlood flood-color="#aaacae" flood-opacity=".77"/>
      <feComposite in2="blur-31" operator="in"/>
      <feComposite in="SourceGraphic"/>
    </filter>
    <filter id="drop-shadow-32" x="570.93" y="350.94" width="18" height="23" filterUnits="userSpaceOnUse">
      <feOffset dx="0" dy="0"/>
      <feGaussianBlur result="blur-32" stdDeviation=".54"/>
      <feFlood flood-color="#aaacae" flood-opacity=".77"/>
      <feComposite in2="blur-32" operator="in"/>
      <feComposite in="SourceGraphic"/>
    </filter>
  </defs>
  <g id="Camada_1-2" data-name="Camada 1">
    <g>
      <g>
        <path class="cls-31" d="M277.41.74v8.75h-.86c-.51-2.02-1.07-3.47-1.69-4.35-.62-.88-1.47-1.59-2.55-2.11-.6-.29-1.66-.43-3.17-.43h-2.41v24.95c0,1.65.09,2.69.28,3.1.18.42.54.78,1.07,1.09.53.31,1.26.47,2.18.47h1.07v.88h-16.93v-.88h1.07c.94,0,1.69-.17,2.27-.5.41-.22.74-.6.98-1.15.18-.38.26-1.38.26-3V2.6h-2.34c-2.18,0-3.76.46-4.75,1.38-1.38,1.29-2.26,3.12-2.62,5.51h-.91V.74h29.05Z"/>
        <path class="cls-31" d="M292.15,18.34v9.06c0,1.75.11,2.85.32,3.3.21.45.59.82,1.13,1.09.54.27,1.55.41,3.03.41v.88h-16.55v-.88c1.49,0,2.51-.14,3.04-.42.53-.28.91-.64,1.12-1.09.21-.44.32-1.54.32-3.29V6.42c0-1.75-.11-2.85-.32-3.3-.21-.45-.59-.82-1.13-1.09-.54-.27-1.55-.41-3.03-.41v-.88h15.02c3.91,0,6.77.27,8.59.81,1.81.54,3.29,1.54,4.43,2.99,1.14,1.45,1.72,3.16,1.72,5.12,0,2.38-.86,4.36-2.58,5.91-1.1.99-2.63,1.73-4.6,2.22l7.77,10.95c1.02,1.41,1.74,2.3,2.17,2.65.65.49,1.41.76,2.26.81v.88h-10.18l-10.42-14.74h-2.12ZM292.15,2.48v14.17h1.36c2.21,0,3.86-.21,4.96-.61,1.1-.4,1.96-1.14,2.59-2.19.63-1.06.94-2.44.94-4.14,0-2.46-.58-4.28-1.73-5.46-1.15-1.18-3.01-1.76-5.57-1.76h-2.55Z"/>
        <path class="cls-31" d="M332.34,32.2v.88h-16.91v-.88h1.07c.94,0,1.69-.17,2.26-.5.42-.22.73-.6.96-1.15.18-.38.26-1.38.26-3V6.27c0-1.65-.09-2.69-.26-3.1-.18-.41-.53-.77-1.06-1.09-.53-.31-1.25-.47-2.16-.47h-1.07v-.88h16.91v.88h-1.07c-.94,0-1.69.17-2.27.5-.41.22-.74.6-.98,1.15-.18.38-.26,1.38-.26,3v21.27c0,1.65.09,2.69.28,3.1.18.42.54.78,1.07,1.09.53.31,1.25.47,2.16.47h1.07Z"/>
        <path class="cls-31" d="M355.19,15.93c3.07.72,5.22,1.58,6.46,2.6,1.78,1.45,2.67,3.32,2.67,5.63,0,2.43-.98,4.44-2.93,6.03-2.4,1.92-5.89,2.89-10.47,2.89h-16.43v-.88c1.5,0,2.51-.14,3.04-.42.53-.28.91-.64,1.12-1.09.21-.44.32-1.54.32-3.29V6.42c0-1.75-.11-2.85-.32-3.3-.21-.45-.59-.82-1.13-1.09-.54-.27-1.55-.41-3.03-.41v-.88h15.5c3.7,0,6.33.33,7.87.99,1.54.66,2.76,1.64,3.65,2.96.89,1.31,1.34,2.7,1.34,4.18,0,1.56-.56,2.94-1.69,4.16-1.13,1.22-3.12,2.18-5.96,2.9ZM346.5,17.15v10.37l-.02,1.19c0,.86.22,1.51.66,1.94.44.44,1.09.66,1.95.66,1.27,0,2.44-.28,3.52-.85,1.07-.57,1.9-1.38,2.47-2.46.57-1.07.86-2.27.86-3.59,0-1.51-.35-2.87-1.05-4.07-.7-1.2-1.66-2.04-2.89-2.52-1.23-.48-3.05-.71-5.49-.69ZM346.5,15.29c2.26,0,3.92-.25,5-.76,1.07-.51,1.9-1.22,2.47-2.15.57-.92.86-2.1.86-3.53s-.28-2.61-.85-3.52c-.56-.92-1.37-1.61-2.42-2.09-1.05-.47-2.73-.7-5.06-.69v12.74Z"/>
        <path class="cls-31" d="M367.18.74h16.7v.88h-.84c-1.26,0-2.12.13-2.59.39-.47.26-.8.62-1,1.08-.2.46-.3,1.61-.3,3.46v15.84c0,2.9.22,4.81.66,5.75.44.94,1.16,1.72,2.16,2.34,1,.62,2.27.93,3.79.93,1.75,0,3.24-.39,4.47-1.18,1.23-.79,2.15-1.87,2.77-3.26.61-1.38.92-3.79.92-7.23V6.56c0-1.45-.15-2.48-.45-3.1-.3-.62-.68-1.05-1.15-1.29-.72-.37-1.72-.55-3.03-.55v-.88h11.19v.88h-.67c-.91,0-1.66.18-2.27.55-.6.37-1.04.91-1.31,1.64-.21.51-.31,1.42-.31,2.74v12.28c0,3.8-.25,6.54-.75,8.23-.5,1.68-1.72,3.24-3.66,4.65-1.94,1.42-4.59,2.12-7.94,2.12-2.8,0-4.96-.37-6.49-1.12-2.08-1.02-3.55-2.32-4.41-3.91-.86-1.59-1.29-3.73-1.29-6.42V6.56c0-1.86-.1-3.02-.31-3.47-.21-.45-.56-.81-1.07-1.08-.51-.27-1.45-.4-2.81-.38v-.88Z"/>
        <path class="cls-31" d="M413.47.74l15.96,20.06V6.89c0-1.94-.28-3.25-.83-3.94-.76-.92-2.04-1.37-3.84-1.34v-.88h10.68v.88c-1.37.18-2.29.4-2.75.68-.47.28-.83.73-1.1,1.36-.26.63-.39,1.7-.39,3.23v26.93h-.81l-21.87-26.93v20.56c0,1.86.43,3.12,1.28,3.77.85.65,1.82.98,2.92.98h.76v.88h-11.47v-.88c1.78-.02,3.02-.38,3.72-1.1.7-.72,1.05-1.93,1.05-3.65V4.63l-.69-.86c-.68-.86-1.29-1.42-1.81-1.7-.53-.27-1.28-.42-2.27-.45v-.88h11.47Z"/>
        <path class="cls-31" d="M456.9,23.87h-11.42l-1.36,3.15c-.45,1.05-.67,1.92-.67,2.6,0,.91.37,1.57,1.1,2,.43.25,1.49.44,3.17.57v.88h-10.76v-.88c1.16-.18,2.11-.66,2.86-1.44.75-.79,1.67-2.41,2.77-4.88L454.16.07h.45l11.66,26.52c1.11,2.51,2.03,4.1,2.74,4.75.54.49,1.31.78,2.29.86v.88h-15.64v-.88h.64c1.26,0,2.14-.18,2.65-.53.35-.25.53-.62.53-1.1,0-.29-.05-.58-.14-.88-.03-.14-.27-.74-.72-1.79l-1.72-4.03ZM456.09,22.11l-4.82-11.14-4.96,11.14h9.78Z"/>
        <path class="cls-31" d="M502.7,21.73l-1.22,11.35h-28.72v-.88h1.07c.94,0,1.7-.17,2.27-.5.41-.22.73-.6.95-1.15.18-.38.26-1.38.26-3V6.27c0-1.65-.09-2.69-.26-3.1-.17-.41-.53-.77-1.06-1.09-.53-.31-1.25-.47-2.16-.47h-1.07v-.88h17.24v.88h-1.41c-.94,0-1.69.17-2.27.5-.41.22-.74.6-.98,1.15-.18.38-.26,1.38-.26,3v20.61c0,1.65.1,2.71.29,3.16.19.45.57.79,1.12,1.01.4.14,1.36.21,2.88.21h2.7c1.72,0,3.15-.3,4.29-.91,1.14-.6,2.14-1.56,2.97-2.86.84-1.31,1.63-3.23,2.37-5.77h.98Z"/>
        <path class="cls-31" d="M514.6,33.08v-.88h1.07c.94,0,1.66-.15,2.16-.44.5-.29.87-.7,1.11-1.21.14-.33.21-1.34.21-3V6.27c0-1.65-.09-2.69-.26-3.1-.18-.41-.53-.77-1.06-1.09-.53-.31-1.25-.47-2.16-.47h-1.07v-.88h14.48c3.86,0,6.97.53,9.33,1.58,2.88,1.29,5.06,3.23,6.55,5.84,1.49,2.61,2.23,5.56,2.23,8.85,0,2.27-.37,4.37-1.1,6.29-.73,1.92-1.68,3.5-2.84,4.75-1.16,1.25-2.5,2.25-4.02,3.01-1.52.76-3.37,1.34-5.57,1.75-.97.19-2.5.29-4.58.29h-14.48ZM526.93,2.58v25.23c0,1.34.06,2.16.19,2.46.12.3.34.53.64.69.43.24,1.05.36,1.86.36,2.65,0,4.68-.91,6.08-2.72,1.91-2.45,2.86-6.25,2.86-11.4,0-4.15-.65-7.47-1.96-9.94-1.03-1.94-2.36-3.26-3.98-3.96-1.14-.49-3.04-.73-5.7-.72Z"/>
        <path class="cls-31" d="M562.54,2.6v13.17h.64c2.05,0,3.54-.64,4.46-1.93.92-1.29,1.51-3.19,1.76-5.7h.91v16.93h-.91c-.19-1.84-.59-3.35-1.2-4.53-.61-1.18-1.32-1.97-2.13-2.37-.81-.41-1.99-.61-3.53-.61v9.11c0,1.78.07,2.87.22,3.27.15.4.44.72.85.98.41.25,1.08.38,2,.38h1.93c3.02,0,5.44-.7,7.26-2.1,1.82-1.4,3.13-3.53,3.92-6.39h.88l-1.46,10.28h-27.95v-.88h1.07c.94,0,1.69-.17,2.27-.5.41-.22.73-.6.96-1.15.18-.38.26-1.38.26-3V6.27c0-1.46-.04-2.36-.12-2.7-.16-.56-.45-.99-.88-1.29-.6-.44-1.43-.67-2.48-.67h-1.07v-.88h27.07v9.56h-.9c-.46-2.34-1.11-4.01-1.95-5.03s-2.02-1.76-3.54-2.24c-.89-.29-2.56-.43-5.01-.43h-3.34Z"/>
        <path class="cls-31" d="M600.96,1.62v-.88h17.2v.88h-1.05c-.95,0-1.72.17-2.29.5-.4.22-.72.6-.95,1.15-.17.38-.26,1.38-.26,3v15.84c0,3.1-.31,5.35-.93,6.76-.62,1.41-1.72,2.58-3.3,3.53-1.58.95-3.49,1.42-5.71,1.42-2.72,0-4.92-.71-6.59-2.15-1.68-1.43-2.51-3.01-2.51-4.75,0-1.11.34-2.02,1.03-2.71.68-.69,1.52-1.04,2.5-1.04s1.79.31,2.45.93c.66.62.99,1.38.99,2.29,0,.45-.06.83-.17,1.17-.07.16-.31.56-.75,1.21-.44.64-.66,1.1-.66,1.37,0,.41.21.77.62,1.07.6.45,1.39.67,2.36.67.68,0,1.25-.18,1.69-.53.45-.35.76-.89.94-1.63.18-.74.27-2.8.27-6.17V6.27c0-1.65-.09-2.69-.27-3.1-.18-.41-.54-.77-1.08-1.09-.53-.31-1.25-.47-2.16-.47h-1.36Z"/>
        <path class="cls-31" d="M619.58.74h16.7v.88h-.83c-1.26,0-2.12.13-2.59.39-.47.26-.8.62-1,1.08-.2.46-.3,1.61-.3,3.46v15.84c0,2.9.22,4.81.66,5.75.44.94,1.15,1.72,2.16,2.34,1,.62,2.27.93,3.79.93,1.75,0,3.24-.39,4.47-1.18,1.23-.79,2.15-1.87,2.77-3.26s.92-3.79.92-7.23V6.56c0-1.45-.15-2.48-.45-3.1-.3-.62-.68-1.05-1.14-1.29-.71-.37-1.72-.55-3.03-.55v-.88h11.18v.88h-.66c-.91,0-1.66.18-2.27.55-.6.37-1.04.91-1.31,1.64-.21.51-.31,1.42-.31,2.74v12.28c0,3.8-.25,6.54-.75,8.23-.5,1.68-1.72,3.24-3.66,4.65-1.94,1.42-4.59,2.12-7.94,2.12-2.8,0-4.96-.37-6.49-1.12-2.09-1.02-3.55-2.32-4.41-3.91-.86-1.59-1.29-3.73-1.29-6.42V6.56c0-1.86-.1-3.02-.31-3.47-.21-.45-.57-.81-1.08-1.08-.51-.27-1.44-.4-2.82-.38v-.88Z"/>
        <path class="cls-31" d="M676.66,0l.26,10.78h-.98c-.46-2.7-1.6-4.88-3.4-6.52-1.8-1.64-3.75-2.47-5.85-2.47-1.62,0-2.91.43-3.85,1.3-.95.87-1.42,1.87-1.42,2.99,0,.72.17,1.35.5,1.91.46.75,1.2,1.49,2.22,2.22.75.53,2.47,1.46,5.17,2.79,3.78,1.86,6.34,3.62,7.66,5.27,1.31,1.66,1.96,3.55,1.96,5.68,0,2.7-1.05,5.03-3.16,6.98-2.11,1.95-4.78,2.92-8.02,2.92-1.02,0-1.98-.1-2.89-.31-.91-.21-2.04-.6-3.41-1.17-.76-.32-1.39-.48-1.88-.48-.41,0-.85.16-1.31.48-.46.32-.83.8-1.12,1.45h-.88v-12.21h.88c.7,3.43,2.05,6.06,4.04,7.86,2,1.8,4.15,2.71,6.45,2.71,1.78,0,3.2-.49,4.26-1.46,1.06-.97,1.58-2.1,1.58-3.39,0-.76-.2-1.5-.61-2.22-.41-.72-1.02-1.4-1.85-2.04-.83-.64-2.29-1.48-4.39-2.52-2.94-1.45-5.05-2.68-6.34-3.7-1.29-1.02-2.28-2.15-2.97-3.41-.69-1.26-1.04-2.64-1.04-4.15,0-2.58.95-4.77,2.84-6.58,1.89-1.81,4.28-2.72,7.16-2.72,1.05,0,2.07.13,3.05.38.75.19,1.66.54,2.73,1.06,1.07.52,1.82.78,2.25.78s.74-.13.98-.38c.24-.25.46-.86.67-1.84h.71Z"/>
        <path class="cls-31" d="M711.69.74v8.75h-.86c-.51-2.02-1.07-3.47-1.69-4.35-.62-.88-1.47-1.59-2.56-2.11-.6-.29-1.66-.43-3.17-.43h-2.41v24.95c0,1.65.09,2.69.28,3.1.18.42.54.78,1.07,1.09.54.31,1.26.47,2.18.47h1.07v.88h-16.93v-.88h1.07c.94,0,1.69-.17,2.27-.5.41-.22.74-.6.98-1.15.18-.38.26-1.38.26-3V2.6h-2.34c-2.18,0-3.76.46-4.74,1.38-1.38,1.29-2.26,3.12-2.63,5.51h-.91V.74h29.05Z"/>
        <path class="cls-31" d="M731.34,32.2v.88h-16.91v-.88h1.08c.94,0,1.69-.17,2.27-.5.41-.22.73-.6.95-1.15.18-.38.26-1.38.26-3V6.27c0-1.65-.08-2.69-.26-3.1-.18-.41-.53-.77-1.06-1.09-.53-.31-1.25-.47-2.16-.47h-1.08v-.88h16.91v.88h-1.07c-.94,0-1.69.17-2.27.5-.41.22-.74.6-.98,1.15-.18.38-.26,1.38-.26,3v21.27c0,1.65.09,2.69.27,3.1.18.42.54.78,1.08,1.09.53.31,1.25.47,2.16.47h1.07Z"/>
        <path class="cls-31" d="M765.07,0v11.21h-.93c-.7-2.93-2-5.17-3.91-6.73-1.91-1.56-4.07-2.34-6.49-2.34-2.02,0-3.87.58-5.56,1.74-1.68,1.16-2.92,2.68-3.7,4.55-1,2.4-1.5,5.07-1.5,8.01s.37,5.53,1.1,7.91c.73,2.38,1.88,4.17,3.43,5.39,1.56,1.22,3.58,1.83,6.06,1.83,2.04,0,3.9-.44,5.59-1.34,1.69-.89,3.48-2.42,5.35-4.6v2.79c-1.81,1.89-3.7,3.27-5.66,4.12-1.96.85-4.26,1.28-6.88,1.28-3.45,0-6.52-.69-9.19-2.07-2.68-1.38-4.75-3.37-6.2-5.96-1.45-2.59-2.18-5.35-2.18-8.28,0-3.08.81-6.01,2.42-8.78,1.61-2.77,3.79-4.91,6.54-6.44,2.74-1.53,5.65-2.29,8.74-2.29,2.27,0,4.68.49,7.21,1.48,1.46.57,2.39.86,2.79.86.51,0,.95-.19,1.32-.56.37-.37.62-.97.73-1.78h.93ZM751.54,32.79h1.57l-1.12,1.74c.95.16,1.68.54,2.18,1.16.5.61.75,1.38.75,2.3,0,.83-.25,1.58-.74,2.27-.5.68-1.12,1.16-1.89,1.43-1.21.4-3.04.59-5.49.57v-1.12c1.59-.06,2.67-.32,3.23-.78.56-.45.85-1.08.85-1.87,0-.48-.19-.88-.56-1.19-.37-.32-.91-.48-1.61-.48l2.82-4.03Z"/>
        <path class="cls-31" d="M788.06,23.87h-11.43l-1.36,3.15c-.44,1.05-.66,1.92-.66,2.6,0,.91.36,1.57,1.1,2,.43.25,1.49.44,3.17.57v.88h-10.76v-.88c1.16-.18,2.11-.66,2.86-1.44.74-.79,1.67-2.41,2.77-4.88L785.32.07h.45l11.66,26.52c1.11,2.51,2.03,4.1,2.74,4.75.54.49,1.3.78,2.29.86v.88h-15.64v-.88h.64c1.26,0,2.14-.18,2.65-.53.35-.25.53-.62.53-1.1,0-.29-.05-.58-.15-.88-.03-.14-.27-.74-.71-1.79l-1.72-4.03ZM787.25,22.11l-4.82-11.14-4.96,11.14h9.78Z"/>
      </g>
      <g>
        <path class="cls-31" d="M234.71,512.33v-.84c1.81-.53,3.07-1.01,3.77-1.46.7-.45,1.3-1.15,1.81-2.08.51-.93.76-1.87.76-2.82,0-1.32-.48-2.45-1.44-3.4-.96-.95-2.16-1.42-3.59-1.42-2.23,0-4.12,1.18-5.68,3.53l-.88-.31c1.15-2.66,2.61-4.65,4.4-5.99,1.79-1.33,3.78-2,5.97-2s4.09.69,5.55,2.05c1.45,1.37,2.18,2.97,2.18,4.8,0,1.19-.34,2.34-1.01,3.45-.67,1.1-1.74,2.08-3.18,2.92,1.86.91,3.28,2.02,4.26,3.35.98,1.33,1.47,2.99,1.47,5,0,3.37-1.22,6.24-3.66,8.6-2.44,2.36-5.71,3.54-9.81,3.54-2.74,0-4.73-.45-5.99-1.36-.91-.64-1.36-1.45-1.36-2.46,0-.73.26-1.36.79-1.87.53-.52,1.13-.77,1.81-.77.52,0,1.02.11,1.48.33.25.13,1.16.83,2.71,2.09,1.55,1.27,3,1.89,4.35,1.89,1.18,0,2.19-.46,3.03-1.39.84-.93,1.26-2.11,1.26-3.54,0-2.18-.76-4.19-2.29-6.02-1.53-1.83-3.76-3.1-6.7-3.8Z"/>
        <path class="cls-31" d="M264.76,528.55v-.88h1.07c.94,0,1.66-.15,2.16-.44.5-.29.87-.69,1.11-1.2.14-.33.21-1.33.21-3.01v-21.27c0-1.65-.09-2.69-.26-3.1s-.53-.77-1.06-1.08c-.53-.31-1.25-.47-2.16-.47h-1.07v-.88h14.48c3.86,0,6.97.52,9.32,1.57,2.88,1.29,5.06,3.23,6.55,5.84,1.49,2.61,2.23,5.56,2.23,8.85,0,2.28-.37,4.37-1.1,6.29-.73,1.91-1.68,3.5-2.84,4.75-1.16,1.25-2.5,2.25-4.02,3-1.52.76-3.37,1.34-5.57,1.75-.97.19-2.5.29-4.58.29h-14.48ZM277.09,498.04v25.23c0,1.33.06,2.16.19,2.46.13.3.34.53.64.69.43.24,1.05.36,1.86.36,2.65,0,4.68-.91,6.08-2.72,1.91-2.45,2.86-6.25,2.86-11.4,0-4.15-.65-7.47-1.96-9.95-1.03-1.94-2.36-3.26-3.98-3.96-1.15-.49-3.05-.73-5.7-.72Z"/>
        <path class="cls-31" d="M312.7,498.07v13.17h.64c2.05,0,3.54-.64,4.46-1.93.92-1.29,1.51-3.19,1.77-5.7h.91v16.93h-.91c-.19-1.85-.59-3.36-1.2-4.53-.61-1.18-1.32-1.97-2.13-2.37-.81-.4-1.99-.61-3.53-.61v9.11c0,1.78.08,2.87.23,3.27.15.4.43.72.85.98.41.25,1.08.38,2,.38h1.93c3.02,0,5.44-.7,7.26-2.1,1.82-1.4,3.13-3.53,3.92-6.39h.88l-1.46,10.28h-27.95v-.88h1.07c.94,0,1.69-.17,2.26-.5.42-.22.73-.6.95-1.15.18-.38.26-1.38.26-3.01v-21.27c0-1.46-.04-2.36-.12-2.69-.16-.56-.45-.99-.88-1.29-.6-.44-1.43-.67-2.48-.67h-1.07v-.88h27.07v9.56h-.91c-.46-2.34-1.11-4.01-1.94-5.03-.84-1.02-2.02-1.76-3.54-2.24-.89-.29-2.56-.43-5.01-.43h-3.34Z"/>
        <path class="cls-31" d="M357.61,498.07v13.28h.93c1.43,0,2.6-.21,3.51-.64.91-.43,1.67-1.15,2.3-2.17.63-1.02,1.04-2.4,1.23-4.13h.83v16.24h-.83c-.3-3.07-1.13-5.09-2.47-6.07-1.34-.98-2.87-1.47-4.57-1.47h-.93v9.9c0,1.66.09,2.69.27,3.1.18.41.54.77,1.08,1.08.53.31,1.25.47,2.16.47h1.07v.88h-16.91v-.88h1.07c.94,0,1.69-.17,2.27-.5.41-.22.73-.6.95-1.15.18-.38.26-1.38.26-3.01v-21.27c0-1.65-.09-2.69-.26-3.1-.17-.41-.53-.77-1.06-1.08-.53-.31-1.25-.47-2.16-.47h-1.07v-.88h27.28v9.28h-.98c-.22-2.18-.79-3.79-1.71-4.84-.92-1.05-2.24-1.79-3.97-2.22-.95-.24-2.72-.36-5.3-.36h-3Z"/>
        <path class="cls-31" d="M387.32,498.07v13.17h.64c2.05,0,3.54-.64,4.46-1.93.92-1.29,1.51-3.19,1.77-5.7h.91v16.93h-.91c-.19-1.85-.59-3.36-1.21-4.53-.61-1.18-1.32-1.97-2.13-2.37-.81-.4-1.99-.61-3.53-.61v9.11c0,1.78.08,2.87.23,3.27.15.4.43.72.85.98.41.25,1.08.38,2,.38h1.93c3.02,0,5.44-.7,7.26-2.1,1.82-1.4,3.13-3.53,3.92-6.39h.88l-1.45,10.28h-27.95v-.88h1.07c.94,0,1.7-.17,2.27-.5.41-.22.73-.6.95-1.15.17-.38.26-1.38.26-3.01v-21.27c0-1.46-.04-2.36-.12-2.69-.16-.56-.45-.99-.88-1.29-.6-.44-1.43-.67-2.48-.67h-1.07v-.88h27.07v9.56h-.91c-.46-2.34-1.11-4.01-1.94-5.03-.83-1.02-2.01-1.76-3.54-2.24-.89-.29-2.56-.43-5.01-.43h-3.34Z"/>
        <path class="cls-31" d="M441.37,496.21v.88c-1.18.19-2.23.82-3.15,1.88-.67.79-1.66,2.66-2.98,5.61l-11.14,24.71h-.79l-11.09-25.71c-1.34-3.1-2.23-4.92-2.68-5.46-.45-.54-1.31-.88-2.56-1.03v-.88h15.5v.88h-.53c-1.4,0-2.35.18-2.86.52-.37.24-.55.59-.55,1.05,0,.29.06.63.19,1.01.13.39.56,1.44,1.29,3.14l6.89,16.1,6.39-14.33c.76-1.73,1.23-2.9,1.41-3.48.17-.59.26-1.09.26-1.5,0-.48-.13-.9-.38-1.26-.25-.37-.63-.64-1.12-.84-.68-.27-1.59-.4-2.72-.4v-.88h10.61Z"/>
        <path class="cls-31" d="M455.18,498.07v13.17h.64c2.05,0,3.54-.64,4.46-1.93.92-1.29,1.51-3.19,1.77-5.7h.91v16.93h-.91c-.19-1.85-.59-3.36-1.21-4.53-.61-1.18-1.32-1.97-2.13-2.37-.81-.4-1.99-.61-3.53-.61v9.11c0,1.78.07,2.87.23,3.27.15.4.43.72.85.98.41.25,1.08.38,2,.38h1.93c3.02,0,5.44-.7,7.26-2.1,1.82-1.4,3.13-3.53,3.92-6.39h.88l-1.45,10.28h-27.95v-.88h1.07c.94,0,1.69-.17,2.27-.5.41-.22.73-.6.95-1.15.18-.38.26-1.38.26-3.01v-21.27c0-1.46-.04-2.36-.12-2.69-.16-.56-.45-.99-.88-1.29-.6-.44-1.43-.67-2.48-.67h-1.07v-.88h27.07v9.56h-.91c-.46-2.34-1.11-4.01-1.94-5.03-.83-1.02-2.01-1.76-3.54-2.24-.89-.29-2.56-.43-5.01-.43h-3.34Z"/>
        <path class="cls-31" d="M487.42,513.81v9.06c0,1.75.11,2.85.32,3.31.21.45.59.81,1.13,1.08.54.27,1.55.41,3.03.41v.88h-16.55v-.88c1.49,0,2.51-.14,3.04-.42.53-.28.91-.64,1.12-1.09.22-.45.32-1.54.32-3.29v-20.99c0-1.75-.11-2.85-.32-3.3-.21-.45-.59-.82-1.13-1.09-.54-.27-1.55-.4-3.03-.4v-.88h15.03c3.91,0,6.77.27,8.58.81,1.81.54,3.29,1.54,4.44,2.99,1.15,1.45,1.72,3.16,1.72,5.12,0,2.38-.86,4.36-2.58,5.91-1.1.99-2.63,1.72-4.6,2.22l7.77,10.95c1.02,1.41,1.74,2.3,2.17,2.65.65.49,1.41.76,2.27.81v.88h-10.18l-10.42-14.74h-2.12ZM487.42,497.95v14.16h1.36c2.21,0,3.86-.2,4.96-.61,1.1-.41,1.96-1.14,2.58-2.2.63-1.06.94-2.44.94-4.14,0-2.46-.58-4.28-1.73-5.46-1.15-1.18-3.01-1.76-5.57-1.76h-2.55Z"/>
        <path class="cls-31" d="M523.03,498.07v13.17h.65c2.05,0,3.54-.64,4.46-1.93.92-1.29,1.51-3.19,1.77-5.7h.91v16.93h-.91c-.19-1.85-.59-3.36-1.2-4.53-.61-1.18-1.32-1.97-2.13-2.37-.81-.4-1.99-.61-3.53-.61v9.11c0,1.78.07,2.87.22,3.27.15.4.44.72.85.98.42.25,1.08.38,2,.38h1.93c3.02,0,5.44-.7,7.26-2.1,1.82-1.4,3.13-3.53,3.92-6.39h.88l-1.46,10.28h-27.95v-.88h1.07c.94,0,1.69-.17,2.27-.5.41-.22.73-.6.95-1.15.18-.38.26-1.38.26-3.01v-21.27c0-1.46-.04-2.36-.12-2.69-.16-.56-.45-.99-.88-1.29-.6-.44-1.43-.67-2.48-.67h-1.07v-.88h27.07v9.56h-.91c-.46-2.34-1.11-4.01-1.94-5.03-.83-1.02-2.02-1.76-3.54-2.24-.89-.29-2.56-.43-5.01-.43h-3.34Z"/>
        <path class="cls-31" d="M560.19,527.67v.88h-16.91v-.88h1.07c.94,0,1.69-.17,2.27-.5.41-.22.73-.6.96-1.15.17-.38.26-1.38.26-3.01v-21.27c0-1.65-.09-2.69-.26-3.1-.18-.41-.53-.77-1.06-1.08-.53-.31-1.25-.47-2.16-.47h-1.07v-.88h16.91v.88h-1.07c-.94,0-1.69.17-2.27.5-.41.22-.74.6-.98,1.15-.18.38-.27,1.38-.27,3v21.27c0,1.66.1,2.69.28,3.1.18.41.54.77,1.07,1.08.53.31,1.25.47,2.16.47h1.07Z"/>
        <path class="cls-31" d="M574.28,513.81v9.06c0,1.75.11,2.85.32,3.31.22.45.59.81,1.14,1.08.54.27,1.55.41,3.03.41v.88h-16.55v-.88c1.49,0,2.51-.14,3.04-.42.53-.28.91-.64,1.12-1.09.21-.45.32-1.54.32-3.29v-20.99c0-1.75-.11-2.85-.32-3.3-.22-.45-.59-.82-1.13-1.09-.54-.27-1.55-.4-3.03-.4v-.88h15.03c3.91,0,6.77.27,8.58.81,1.81.54,3.29,1.54,4.44,2.99,1.14,1.45,1.72,3.16,1.72,5.12,0,2.38-.86,4.36-2.58,5.91-1.09.99-2.63,1.72-4.6,2.22l7.78,10.95c1.02,1.41,1.74,2.3,2.17,2.65.65.49,1.41.76,2.27.81v.88h-10.19l-10.42-14.74h-2.12ZM574.28,497.95v14.16h1.36c2.21,0,3.86-.2,4.96-.61,1.09-.41,1.96-1.14,2.59-2.2.63-1.06.94-2.44.94-4.14,0-2.46-.58-4.28-1.73-5.46-1.15-1.18-3.01-1.76-5.57-1.76h-2.55Z"/>
        <path class="cls-31" d="M615.45,495.76c5.15-.19,9.34,1.31,12.56,4.51,3.22,3.19,4.83,7.2,4.83,12,0,4.1-1.2,7.71-3.6,10.83-3.18,4.13-7.67,6.2-13.47,6.2s-10.32-1.97-13.5-5.92c-2.51-3.11-3.77-6.81-3.77-11.09,0-4.8,1.63-8.8,4.9-12.01,3.27-3.2,7.29-4.71,12.06-4.52ZM615.73,497.28c-2.96,0-5.21,1.51-6.75,4.53-1.26,2.48-1.88,6.04-1.88,10.68,0,5.52.97,9.59,2.91,12.23,1.35,1.85,3.24,2.77,5.68,2.77,1.64,0,3.01-.4,4.1-1.19,1.4-1.02,2.49-2.64,3.27-4.88.78-2.23,1.17-5.15,1.17-8.74,0-4.28-.4-7.48-1.19-9.6-.79-2.12-1.81-3.62-3.04-4.49-1.23-.88-2.65-1.31-4.26-1.31Z"/>
        <path class="cls-31" d="M647.43,528.55v-.88h1.07c.94,0,1.66-.15,2.16-.44.5-.29.87-.69,1.11-1.2.14-.33.21-1.33.21-3.01v-21.27c0-1.65-.08-2.69-.26-3.1s-.53-.77-1.06-1.08c-.53-.31-1.25-.47-2.16-.47h-1.07v-.88h14.48c3.86,0,6.97.52,9.33,1.57,2.88,1.29,5.06,3.23,6.55,5.84,1.49,2.61,2.23,5.56,2.23,8.85,0,2.28-.36,4.37-1.09,6.29-.74,1.91-1.68,3.5-2.84,4.75s-2.5,2.25-4.02,3c-1.52.76-3.37,1.34-5.57,1.75-.97.19-2.5.29-4.58.29h-14.48ZM659.76,498.04v25.23c0,1.33.06,2.16.19,2.46.13.3.34.53.64.69.43.24,1.05.36,1.86.36,2.65,0,4.68-.91,6.08-2.72,1.91-2.45,2.86-6.25,2.86-11.4,0-4.15-.65-7.47-1.96-9.95-1.03-1.94-2.36-3.26-3.98-3.96-1.14-.49-3.04-.73-5.7-.72Z"/>
        <path class="cls-31" d="M695.37,498.07v13.17h.64c2.05,0,3.54-.64,4.46-1.93.92-1.29,1.51-3.19,1.76-5.7h.91v16.93h-.91c-.19-1.85-.59-3.36-1.2-4.53-.61-1.18-1.32-1.97-2.13-2.37-.81-.4-1.99-.61-3.53-.61v9.11c0,1.78.08,2.87.23,3.27.15.4.43.72.85.98.41.25,1.08.38,2,.38h1.93c3.02,0,5.44-.7,7.26-2.1,1.82-1.4,3.13-3.53,3.92-6.39h.88l-1.45,10.28h-27.95v-.88h1.07c.94,0,1.69-.17,2.27-.5.41-.22.73-.6.96-1.15.18-.38.26-1.38.26-3.01v-21.27c0-1.46-.04-2.36-.12-2.69-.16-.56-.45-.99-.88-1.29-.6-.44-1.43-.67-2.48-.67h-1.07v-.88h27.07v9.56h-.91c-.46-2.34-1.11-4.01-1.94-5.03-.84-1.02-2.02-1.76-3.54-2.24-.89-.29-2.56-.43-5.01-.43h-3.34Z"/>
        <path class="cls-31" d="M742.76,495.54v26.45c0,1.99.08,3.26.26,3.8.18.55.54,1,1.1,1.35.56.35,1.44.53,2.67.53h.74v.88h-17.03v-.88h.86c1.38,0,2.37-.16,2.96-.48.59-.32.98-.76,1.19-1.31.21-.56.31-1.85.31-3.89v-16.77c0-1.5-.07-2.43-.22-2.8-.14-.37-.41-.69-.8-.95-.39-.26-.84-.39-1.35-.39-.81,0-1.8.26-2.96.76l-.43-.86,11.9-5.44h.79Z"/>
        <path class="cls-31" d="M767.92,510.28c2.27,1.67,3.85,3.22,4.73,4.66.88,1.44,1.32,3.09,1.32,4.95,0,2.61-.98,4.82-2.95,6.62-1.96,1.8-4.63,2.71-8,2.71s-5.67-.79-7.42-2.36c-1.75-1.57-2.62-3.5-2.62-5.77,0-1.73.5-3.25,1.51-4.55s2.69-2.5,5.05-3.58c-2.56-1.96-4.2-3.55-4.93-4.8-.72-1.24-1.08-2.68-1.08-4.32,0-2.16.92-4.07,2.75-5.71,1.84-1.64,4.35-2.47,7.55-2.47s5.46.73,7.12,2.18c1.66,1.46,2.49,3.2,2.49,5.24,0,1.53-.45,2.87-1.35,4.04-.9,1.17-2.29,2.22-4.19,3.16ZM761.33,514.09c-.49.45-.84.85-1.05,1.22-.32.56-.6,1.37-.86,2.44-.25,1.06-.38,2.18-.38,3.34,0,1.5.19,2.75.57,3.76.38,1.01.93,1.74,1.63,2.19.71.44,1.43.67,2.18.67,1.16,0,2.14-.43,2.94-1.28.79-.85,1.19-2.01,1.19-3.49,0-3.09-2.07-6.03-6.23-8.83ZM766.11,509.06c.59-.79,1.03-1.69,1.31-2.67.28-.98.43-2.06.43-3.24,0-2.07-.44-3.65-1.34-4.75-.67-.84-1.59-1.26-2.77-1.26-1.07,0-1.97.38-2.72,1.16-.75.77-1.12,1.73-1.12,2.87s.42,2.36,1.25,3.61c.83,1.25,2.48,2.68,4.95,4.28Z"/>
        <path class="cls-31" d="M784.35,529.21l8.8-26.69h-6.7c-2.62,0-4.59.34-5.91,1.02-.92.48-1.69,1.38-2.29,2.7h-.9l2.34-10.04h19.27l-10.85,33.01h-3.75Z"/>
        <path class="cls-31" d="M801.33,516.36l15.36-20.82h2.91v20.82h2.96v4.94h-2.96v7.25h-6.56v-7.25h-11.71v-4.94ZM803.65,516.36h9.4v-12.76l-9.4,12.76Z"/>
      </g>
      <rect class="cls-31" y="355.2" width="1050.82" height="70.06"/>
      <rect class="cls-31" y="215.09" width="1050.82" height="70.05"/>
      <rect class="cls-31" y="74.98" width="1050.82" height="70.06"/>
      <rect class="cls-36" y="145.03" width="1050.82" height="70.06"/>
      <rect class="cls-36" y="285.14" width="1050.82" height="70.06"/>
      <path class="cls-35" d="M220.68,87.08h611.38v330.02H220.04V88.92c-.05-.87-.11-1.74.64-1.84Z"/>
      <path class="cls-31" d="M826.8,88.27v323.69H224.02V88.27h602.78M840.66,74.98H210.17v350.28h630.49V74.98h0Z"/>
      <polygon class="cls-17" points="267.81 100.06 275.59 115.83 292.99 118.36 280.4 130.63 283.37 147.97 267.81 139.78 252.24 147.97 255.21 130.63 242.62 118.36 260.02 115.83 267.81 100.06"/>
      <polygon class="cls-1" points="267.81 352.26 275.59 368.04 292.99 370.56 280.4 382.84 283.37 400.17 267.81 391.99 252.24 400.17 255.21 382.84 242.62 370.56 260.02 368.04 267.81 352.26"/>
      <path class="cls-8" d="M354.76,169.2l1.25,51.37h-4.66c-2.2-12.88-7.6-23.24-16.2-31.08-8.6-7.84-17.9-11.76-27.9-11.76-7.73,0-13.85,2.07-18.36,6.2-4.51,4.13-6.76,8.88-6.76,14.26,0,3.41.79,6.44,2.38,9.09,2.2,3.56,5.72,7.09,10.57,10.57,3.56,2.5,11.78,6.93,24.66,13.3,18.03,8.87,30.19,17.24,36.48,25.12,6.21,7.88,9.32,16.9,9.32,27.05,0,12.88-5.02,23.96-15.06,33.24-10.04,9.29-22.79,13.92-38.24,13.92-4.85,0-9.43-.49-13.75-1.48-4.32-.98-9.74-2.84-16.25-5.57-3.64-1.52-6.63-2.28-8.98-2.28-1.97,0-4.05.76-6.25,2.28-2.2,1.51-3.98,3.82-5.34,6.93h-4.2v-58.19h4.2c3.34,16.37,9.75,28.85,19.27,37.45,9.51,8.6,19.76,12.9,30.74,12.9,8.48,0,15.25-2.31,20.29-6.93,5.04-4.62,7.56-10,7.56-16.14,0-3.64-.97-7.16-2.9-10.57-1.93-3.41-4.87-6.65-8.81-9.72-3.94-3.07-10.91-7.06-20.91-11.99-14.02-6.89-24.1-12.77-30.23-17.62-6.14-4.85-10.85-10.27-14.15-16.25-3.29-5.98-4.94-12.58-4.94-19.78,0-12.27,4.51-22.73,13.53-31.37,9.02-8.64,20.38-12.96,34.09-12.96,5,0,9.85.61,14.55,1.82,3.56.91,7.9,2.6,13.01,5.06,5.11,2.46,8.7,3.69,10.74,3.69s3.52-.6,4.66-1.82c1.14-1.21,2.2-4.13,3.18-8.75h3.41Z"/>
      <polygon class="cls-27" points="783.02 100.06 790.8 115.83 808.2 118.36 795.61 130.63 798.59 147.97 783.02 139.78 767.45 147.97 770.42 130.63 757.83 118.36 775.23 115.83 783.02 100.06"/>
      <polygon class="cls-30" points="783.02 352.26 790.8 368.04 808.2 370.56 795.61 382.84 798.59 400.17 783.02 391.99 767.45 400.17 770.42 382.84 757.83 370.56 775.23 368.04 783.02 352.26"/>
      <path class="cls-32" d="M732.74,257.06v42.73c0,8.34.51,13.58,1.54,15.74,1.02,2.16,2.84,3.88,5.45,5.17,2.62,1.29,7.41,1.93,14.38,1.93v4.21h-78.31v-4.21c7.12,0,11.95-.66,14.49-1.99,2.54-1.32,4.32-3.05,5.34-5.17,1.02-2.12,1.53-7.35,1.53-15.68v-100.01c0-8.33-.51-13.58-1.53-15.74-1.02-2.16-2.82-3.88-5.4-5.17-2.58-1.29-7.39-1.93-14.43-1.93v-4.21h67.17c22.12,0,38,3.94,47.62,11.82,9.62,7.88,14.43,17.73,14.43,29.55,0,10-3.11,18.56-9.32,25.69-6.21,7.12-14.77,11.97-25.68,14.55-7.35,1.82-19.78,2.73-37.28,2.73ZM732.74,181.59v66.6c2.5.15,4.39.23,5.68.23,9.24,0,16.37-2.75,21.37-8.24,5-5.49,7.5-14,7.5-25.52s-2.5-19.81-7.5-25.12c-5-5.3-12.46-7.96-22.39-7.96h-4.66Z"/>
      <path class="cls-31" d="M517.25,351.23s-10.06,2.11-22.23-3.98c0,0-3.04-1.17-13.8-1.17l-21.17-.11s-7.37-3.68-8.77,3.33c0,0-.18,4.21-1.75,7.02l-2.98,4.21s1.93,3.51,2.11,4.03c0,0,1.05,2.81,1.23,5.44,0,0,.53,3.16.35,4.21,0,0-.35,5.62,8.25,4.21,0,0,13.69-1.23,17.9-1.05l16.49-1.05s12.98-3.51,22.81-3.68l1.58-21.41Z"/>
      <path class="cls-36" d="M509.62,357.02c0,1.07-.87,1.93-1.93,1.93s-1.93-.86-1.93-1.93.87-1.93,1.93-1.93,1.93.86,1.93,1.93Z"/>
      <path class="cls-36" d="M509.62,367.02c0,1.07-.87,1.93-1.93,1.93s-1.93-.86-1.93-1.93.87-1.93,1.93-1.93,1.93.86,1.93,1.93Z"/>
      <path class="cls-31" d="M533.57,351.23s10.06,2.11,22.23-3.98c0,0,3.04-1.17,13.8-1.17l21.17-.11s7.37-3.68,8.77,3.33c0,0,.18,4.21,1.75,7.02l2.98,4.21s-1.93,3.51-2.1,4.03c0,0-1.05,2.81-1.23,5.44,0,0-.53,3.16-.35,4.21,0,0,.35,5.62-8.25,4.21,0,0-13.69-1.23-17.9-1.05l-16.49-1.05s-12.98-3.51-22.81-3.68l-1.58-21.41Z"/>
      <path class="cls-36" d="M541.2,357.02c0,1.07.86,1.93,1.93,1.93s1.93-.86,1.93-1.93-.86-1.93-1.93-1.93-1.93.86-1.93,1.93Z"/>
      <path class="cls-36" d="M541.2,367.02c0,1.07.86,1.93,1.93,1.93s1.93-.86,1.93-1.93-.86-1.93-1.93-1.93-1.93.86-1.93,1.93Z"/>
      <rect class="cls-31" x="515.41" y="349.19" width="20" height="8.29"/>
      <polygon class="cls-31" points="538.38 349.54 512.44 349.54 512.44 337.05 525.59 320.53 538.38 337.05 538.38 349.54"/>
      <path class="cls-36" d="M525.47,330.56l-9.76,7.69v9.27h19.26v-9.27l-9.5-7.69ZM532.94,345.99h-15.22v-7.33l7.71-6.08,7.5,6.08v7.33Z"/>
      <path class="cls-37" d="M525.08,49.45v272.4s-3.6,13.15-11.17,13.15l-2.7-139.08-1.8-110.26s.24-23.54,15.67-36.21Z"/>
      <path class="cls-37" d="M525.74,49.45v272.4s3.6,13.15,11.17,13.15l2.7-139.08,1.8-110.26s-.24-23.54-15.67-36.21Z"/>
      <path class="cls-28" d="M539.08,363.51c0,1.96-2.2,3.56-4.93,3.56h-17.48c-2.72,0-4.92-1.6-4.92-3.56v-5.73c0-1.97,2.2-3.56,4.92-3.56h17.48c2.72,0,4.93,1.59,4.93,3.56v5.73Z"/>
      <path class="cls-28" d="M540.44,368.24c0,1.71-.82,3.09-1.83,3.09h-26.38c-1.01,0-1.84-1.38-1.84-3.09h0c0-1.71.82-3.09,1.84-3.09h26.38c1.01,0,1.83,1.38,1.83,3.09h0Z"/>
      <path class="cls-28" d="M539.4,387.73c.02,2.41-2.03,4.38-4.56,4.4l-18.14.11c-2.54.01-4.6-1.93-4.62-4.34h0c-.01-2.41,2.03-4.38,4.56-4.39l18.14-.11c2.53-.02,4.6,1.93,4.61,4.34h0Z"/>
      <path class="cls-28" d="M540.28,396.85c-1.09,2.8-4.22,4.2-6.98,3.12l-19.74-7.73c-2.76-1.08-4.11-4.23-3.01-7.03h0c1.1-2.8,4.22-4.2,6.98-3.12l19.75,7.73c2.76,1.08,4.1,4.23,3,7.03h0Z"/>
      <path class="cls-28" d="M540.28,406.72c-1.09,2.8-4.22,4.2-6.98,3.12l-19.74-7.73c-2.76-1.08-4.11-4.23-3.01-7.03h0c1.1-2.81,4.22-4.2,6.98-3.12l19.75,7.73c2.76,1.08,4.1,4.23,3,7.03h0Z"/>
      <path class="cls-28" d="M540.28,416.59c-1.09,2.8-4.22,4.2-6.98,3.12l-19.74-7.73c-2.76-1.08-4.11-4.23-3.01-7.03h0c1.1-2.81,4.22-4.2,6.98-3.12l19.75,7.73c2.76,1.08,4.1,4.23,3,7.03h0Z"/>
      <path class="cls-28" d="M540.28,426.47c-1.09,2.8-4.22,4.2-6.98,3.12l-19.74-7.73c-2.76-1.09-4.11-4.23-3.01-7.04h0c1.1-2.8,4.22-4.2,6.98-3.12l19.75,7.73c2.76,1.08,4.1,4.23,3,7.03h0Z"/>
      <path class="cls-28" d="M540.28,436.34c-1.09,2.8-4.22,4.2-6.98,3.12l-19.74-7.73c-2.76-1.08-4.11-4.23-3.01-7.03h0c1.1-2.8,4.22-4.2,6.98-3.12l19.75,7.73c2.76,1.08,4.1,4.23,3,7.03h0Z"/>
      <path class="cls-28" d="M540.28,446.22c-1.09,2.8-4.22,4.2-6.98,3.12l-19.74-7.73c-2.76-1.08-4.11-4.23-3.01-7.04h0c1.1-2.8,4.22-4.2,6.98-3.12l19.75,7.73c2.76,1.08,4.1,4.23,3,7.04h0Z"/>
      <path class="cls-28" d="M540.62,377.53c0,3.94-1.46,7.14-3.26,7.14h-24.51c-1.8,0-3.26-3.2-3.26-7.14h0c0-3.94,1.46-7.14,3.26-7.14h24.51c1.8,0,3.26,3.2,3.26,7.14h0Z"/>
      <path class="cls-28" d="M539.91,456.81c.13-.23.27-.47.37-.72,1.1-2.8-.24-5.95-3-7.03l-19.75-7.73c-2.76-1.08-5.89.31-6.98,3.12-1.1,2.81.25,5.95,3.01,7.03l1.36.53c2.86-2.34,6.51-3.75,10.5-3.75,6.24,0,11.67,3.45,14.5,8.55Z"/>
      <path class="cls-28" d="M539.91,456.81c-2.83-5.1-8.26-8.55-14.5-8.55-3.98,0-7.64,1.41-10.5,3.75-3.71,3.04-6.07,7.65-6.07,12.82,0,9.16,7.42,16.58,16.57,16.58s16.58-7.42,16.58-16.58c0-2.91-.76-5.65-2.07-8.02Z"/>
      <g>
        <g>
          <path class="cls-31" d="M517.79,126.16c0,1.1.89,2,2,2s2-.9,2-2-.9-2-2-2-2,.9-2,2Z"/>
          <path class="cls-31" d="M440.23,130.35c3.11-6.89,27.13,0,27.13,0,0,0,20.68,4.67,34.92-8.01,9.1-8.1,16.62-7.5,20.55-6.23-.59-.67-.96-1.54-.96-2.5,0-2.1,1.7-3.8,3.8-3.8s3.79,1.7,3.79,3.8-1.7,3.8-3.79,3.8l-.25,11.55c-.17-6.17-5.67-6.17-5.67-6.17-6.01.33-21.68,12.34-21.68,12.34-18.46,9.9-36.03,1.67-36.03,1.67-18.24-7.56-19.35-2.17-19.35-2.17l-4.67.83-1.67-1.67,3.89-3.45Z"/>
          <g>
            <polygon class="cls-31" points="467.57 240.59 470.12 239.79 439.78 143.3 437.24 144.1 467.57 240.59 467.57 240.59"/>
            <polygon class="cls-31" points="406.84 240.59 404.3 239.79 434.63 143.3 437.18 144.1 406.84 240.59 406.84 240.59"/>
            <polygon class="cls-31" points="435.82 239.26 438.49 239.26 438.49 144.63 435.82 144.63 435.82 239.26 435.82 239.26"/>
            <polygon class="cls-31" points="441 144.98 437.19 135.12 433.37 144.98 441 144.98"/>
            <path class="cls-31" d="M431.64,134.05c0,3.07,2.48,5.55,5.55,5.55s5.55-2.48,5.55-5.55-2.48-5.55-5.55-5.55-5.55,2.48-5.55,5.55Z"/>
          </g>
          <path class="cls-31" d="M474.07,238.27h-73.72s31.55,42.18,73.72,0Z"/>
        </g>
        <g>
          <path class="cls-31" d="M533.05,126.16c0,1.1-.89,2-2,2s-2-.9-2-2,.89-2,2-2,2,.9,2,2Z"/>
          <path class="cls-31" d="M610.61,130.35c-3.11-6.89-27.13,0-27.13,0,0,0-20.69,4.67-34.92-8.01-9.1-8.1-16.63-7.5-20.55-6.23.59-.67.96-1.54.96-2.5,0-2.1-1.7-3.8-3.8-3.8s-3.8,1.7-3.8,3.8,1.7,3.8,3.8,3.8l.25,11.55c.17-6.17,5.67-6.17,5.67-6.17,6,.33,21.68,12.34,21.68,12.34,18.46,9.9,36.03,1.67,36.03,1.67,18.24-7.56,19.35-2.17,19.35-2.17l4.67.83,1.67-1.67-3.89-3.45Z"/>
          <path class="cls-31" d="M529.59,113.06c0,2.53-2.05,4.57-4.58,4.57s-4.57-2.05-4.57-4.57,2.04-4.57,4.57-4.57,4.58,2.05,4.58,4.57Z"/>
          <g>
            <polygon class="cls-31" points="583.27 240.59 580.72 239.79 611.06 143.3 613.6 144.1 583.27 240.59 583.27 240.59"/>
            <polygon class="cls-31" points="644 240.59 646.54 239.79 616.21 143.3 613.66 144.1 644 240.59 644 240.59"/>
            <polygon class="cls-31" points="615.02 239.26 612.35 239.26 612.35 144.63 615.02 144.63 615.02 239.26 615.02 239.26"/>
            <polygon class="cls-31" points="609.84 144.98 613.65 135.12 617.47 144.98 609.84 144.98"/>
            <path class="cls-31" d="M619.2,134.05c0,3.07-2.48,5.55-5.54,5.55s-5.55-2.48-5.55-5.55,2.48-5.55,5.55-5.55,5.54,2.48,5.54,5.55Z"/>
          </g>
          <path class="cls-31" d="M576.77,238.27h73.72s-31.55,42.18-73.72,0Z"/>
        </g>
      </g>
      <g>
        <path class="cls-18" d="M464.27,353.34l-7.86,17.69c.11,0,.21.03.32.03h4.39l7.88-17.72h-4.73Z"/>
        <polygon class="cls-3" points="469.01 353.34 461.13 371.06 465.86 371.06 473.74 353.34 469.01 353.34"/>
        <path class="cls-10" d="M459.32,353.34l-6.4,14.38c.28,1.78,1.71,3.16,3.49,3.31l7.86-17.69h-4.96Z"/>
        <path class="cls-14" d="M452.87,357.18l1.24-2.77c-.73.7-1.2,1.68-1.24,2.77Z"/>
        <polygon class="cls-29" points="473.74 353.34 465.86 371.06 470.59 371.06 478.47 353.34 473.74 353.34"/>
        <path class="cls-5" d="M456.73,353.34c-1.02,0-1.94.41-2.63,1.07l-1.24,2.77s-.01.09-.01.14v9.76c0,.22.03.43.06.64l6.4-14.38h-2.58Z"/>
        <path class="cls-4" d="M504.97,357.61v-.29c0-1.85-1.23-3.39-2.9-3.84l-7.82,17.58h4.74l5.98-13.45Z"/>
        <path class="cls-22" d="M501.1,353.34h-3.69l-7.88,17.72h4.73l7.82-17.58c-.31-.08-.64-.14-.98-.14Z"/>
        <polygon class="cls-15" points="478.47 353.34 470.59 371.06 475.33 371.06 483.21 353.34 478.47 353.34"/>
        <path class="cls-33" d="M501.1,371.06c2.14,0,3.87-1.78,3.87-3.98v-9.47l-5.98,13.45h2.1Z"/>
        <polygon class="cls-13" points="492.67 353.34 484.79 371.06 489.53 371.06 497.41 353.34 492.67 353.34"/>
        <polygon class="cls-25" points="483.21 353.34 475.33 371.06 480.06 371.06 487.94 353.34 483.21 353.34"/>
        <polygon class="cls-12" points="487.94 353.34 480.06 371.06 484.79 371.06 492.67 353.34 487.94 353.34"/>
      </g>
      <g>
        <path class="cls-19" d="M557.68,353.34l-7.86,17.69c.11,0,.21.03.32.03h4.39l7.88-17.72h-4.73Z"/>
        <polygon class="cls-21" points="562.42 353.34 554.54 371.06 559.27 371.06 567.15 353.34 562.42 353.34"/>
        <path class="cls-9" d="M552.72,353.34l-6.39,14.38c.28,1.78,1.71,3.16,3.49,3.31l7.86-17.69h-4.96Z"/>
        <path class="cls-6" d="M546.28,357.18l1.23-2.77c-.73.7-1.2,1.68-1.23,2.77Z"/>
        <polygon class="cls-34" points="567.15 353.34 559.27 371.06 564 371.06 571.88 353.34 567.15 353.34"/>
        <path class="cls-26" d="M550.14,353.34c-1.02,0-1.94.41-2.63,1.07l-1.23,2.77s-.01.09-.01.14v9.76c0,.22.03.43.06.64l6.39-14.38h-2.58Z"/>
        <path class="cls-24" d="M598.38,357.61v-.29c0-1.85-1.23-3.39-2.9-3.84l-7.82,17.58h4.73l5.98-13.45Z"/>
        <path class="cls-20" d="M594.5,353.34h-3.69l-7.88,17.72h4.73l7.82-17.58c-.31-.08-.64-.14-.98-.14Z"/>
        <polygon class="cls-7" points="571.88 353.34 564 371.06 568.74 371.06 576.62 353.34 571.88 353.34"/>
        <path class="cls-11" d="M594.5,371.06c2.14,0,3.87-1.78,3.87-3.98v-9.47l-5.98,13.45h2.1Z"/>
        <polygon class="cls-2" points="586.08 353.34 578.2 371.06 582.93 371.06 590.81 353.34 586.08 353.34"/>
        <polygon class="cls-23" points="576.62 353.34 568.74 371.06 573.47 371.06 581.35 353.34 576.62 353.34"/>
        <polygon class="cls-16" points="581.35 353.34 573.47 371.06 578.2 371.06 586.08 353.34 581.35 353.34"/>
      </g>
    </g>
  </g>
</svg>